<svg xmlns="http://www.w3.org/2000/svg" xmlns:xlink="http://www.w3.org/1999/xlink" fill="none" version="1.1" width="36" height="36.000003814697266" viewBox="0 0 36 36.000003814697266"><defs><clipPath id="master_svg0_4_2433"><rect x="0" y="0" width="36" height="36.000003814697266" rx="0"/></clipPath></defs><g clip-path="url(#master_svg0_4_2433)"><g><path d="M32,15L32,8.25Q32,7.7322299999999995,31.6339,7.36611Q31.2678,7,30.75,7L5.25,7Q4.73224,7,4.3661200000000004,7.3661200000000004Q4,7.73224,4,8.25L4,15L3,15L3,14L33,14L33,15L32,15ZM34,15Q34,15.09849,33.9808,15.19509Q33.961600000000004,15.29169,33.9239,15.38268Q33.8862,15.47368,33.8315,15.55557Q33.7768,15.63746,33.7071,15.70711Q33.6375,15.77675,33.5556,15.83147Q33.4737,15.88619,33.3827,15.92388Q33.2917,15.96157,33.1951,15.98079Q33.0985,16,33,16L3,16Q2.9015086,16,2.80491,15.98079Q2.708311,15.96157,2.617317,15.92388Q2.526322,15.88619,2.44443,15.83147Q2.362537,15.77675,2.292893,15.70711Q2.223249,15.63746,2.16853,15.55557Q2.1138120000000002,15.47368,2.076121,15.38268Q2.03843,15.29169,2.019215,15.19509Q2,15.09849,2,15L2,8.25Q2,6.903808,2.9519042,5.9519042Q3.903809,5,5.25,5L30.75,5Q32.096199999999996,5,33.048100000000005,5.951908Q34,6.903804,34,8.25L34,15Z" fill="#FFFFFF" fill-opacity="1"/></g><g><path d="M25.845228515625,23.49204L22.484828515625,20.216039L23.182828515625,19.5L23.840928515625,20.252938L17.808528515625,25.52551Q17.738528515625,25.58665,17.658528515625,25.63385Q17.578528515625003,25.68105,17.491228515625,25.71271Q17.403828515625,25.74437,17.312228515625,25.7594Q17.220528515625,25.77443,17.127628515625,25.77232Q17.034828515625,25.7702,16.943928515625,25.75102Q16.853028515625,25.73184,16.767228515625,25.69624Q16.681428515625,25.66064,16.603628515624997,25.60985Q16.525828515625,25.55905,16.458728515624998,25.494799999999998L11.524278515625,20.7692L12.215928515625,20.046975L12.926648515625,20.75046L3.794942515625,29.976100000000002Q3.725656515625,30.0461,3.644044515625,30.1012Q3.562432515625,30.1563,3.471632515625,30.194499999999998Q3.380832515625,30.232599999999998,3.284332515625,30.252299999999998Q3.187833515625,30.272100000000002,3.089343545625,30.2726Q2.990853415625,30.2731,2.894157515625,30.2543Q2.797461515625,30.235599999999998,2.7062755156250002,30.1984Q2.615089515625,30.1612,2.532918515625,30.1069Q2.4507475156250003,30.052599999999998,2.380747515625,29.9833Q2.310748515625,29.914,2.255611515625,29.8324Q2.200474515625,29.750799999999998,2.162318515625,29.66Q2.124162515625,29.569200000000002,2.104454515625,29.47268Q2.084745515625,29.376179999999998,2.084241515625,29.27769Q2.083738515625,29.1792,2.102458515625,29.0825Q2.121178515625,28.98581,2.158403515625,28.89462Q2.195628515625,28.803440000000002,2.249928515625,28.72126Q2.304227515625,28.63909,2.373514515625,28.5691L11.505218515625,19.343494Q11.573768515625,19.274235,11.654408515625,19.219514Q11.735038515625,19.164794,11.824728515625,19.126671Q11.914408515625,19.088548,12.009768515625,19.068457Q12.105118515625,19.048367,12.202568515625,19.047064Q12.300008515625,19.045761,12.395868515625,19.063296Q12.491728515625,19.080831,12.582398515625,19.116543Q12.673068515625,19.152255,12.755138515625,19.2048Q12.837208515625,19.257346,12.907588515625,19.324747L17.842028515625,24.05035L17.150428515625002,24.772579999999998L16.492328515624997,24.01964L22.524828515625,18.747062Q22.595128515625,18.68556,22.675728515625,18.638161Q22.756228515625,18.590761,22.844128515625,18.559107Q22.932128515625,18.527453,23.024428515625,18.512641Q23.116628515625,18.49783,23.210028515625,18.50037Q23.303528515625,18.502912,23.394828515625,18.52272Q23.486128515625,18.542528,23.572228515625,18.578917Q23.658328515625,18.615306,23.736128515625,18.667014Q23.814028515625,18.718723,23.880928515625,18.783961L27.241328515625,22.05996Q27.311828515625,22.128709999999998,27.367628515625,22.2099Q27.423328515625,22.29109,27.462228515625,22.3816Q27.501028515625,22.47211,27.521428515625,22.56846Q27.541928515625,22.6648,27.543128515625,22.76329Q27.544428515625,22.86177,27.526428515625,22.95861Q27.508428515625,23.05544,27.471928515625,23.14691Q27.435428515625,23.23837,27.381728515625,23.32095Q27.328028515625,23.40354,27.259328515625,23.47406Q27.190528515625,23.54458,27.109328515625,23.60034Q27.028128515625,23.65609,26.937628515625,23.69494Q26.847128515625,23.73378,26.750828515625,23.75423Q26.654428515625,23.77467,26.555928515625,23.77592Q26.457528515625,23.777169999999998,26.360628515625,23.75919Q26.263828515625,23.7412,26.172328515625,23.70467Q26.080828515625,23.66814,25.998328515625,23.61446Q25.915728515625,23.56079,25.845228515625,23.49204ZM27.543228515625,22.776Q27.543228515625,22.87449,27.524028515625,22.97109Q27.504828515625,23.06769,27.467128515625,23.15868Q27.429428515625,23.24968,27.374728515625,23.33157Q27.320028515625,23.41346,27.250328515625,23.48311Q27.180728515625,23.55275,27.098828515625,23.60747Q27.016928515625,23.66219,26.925928515625,23.69988Q26.834928515625,23.737569999999998,26.738328515625,23.75679Q26.641728515625,23.776,26.543228515625,23.776Q26.444728515625,23.776,26.348128515625,23.75679Q26.251528515625,23.737569999999998,26.160528515625,23.69988Q26.069528515625,23.66219,25.987728515625,23.60747Q25.905828515625,23.55275,25.836128515625,23.48311Q25.766528515625,23.41346,25.711828515625,23.33157Q25.657028515625,23.24968,25.619328515625,23.15868Q25.581728515625,23.06769,25.562428515625,22.97109Q25.543228515625,22.87449,25.543228515625,22.776Q25.543228515625,22.677509999999998,25.562428515625,22.58091Q25.581728515625,22.48431,25.619328515625,22.39332Q25.657028515625,22.30232,25.711828515625,22.22043Q25.766528515625,22.13854,25.836128515625,22.06889Q25.905828515625,21.99925,25.987728515625,21.94453Q26.069528515625,21.88981,26.160528515625,21.85212Q26.251528515625,21.81443,26.348128515625,21.79521Q26.444728515625,21.776,26.543228515625,21.776Q26.641728515625,21.776,26.738328515625,21.79521Q26.834928515625,21.81443,26.925928515625,21.85212Q27.016928515625,21.88981,27.098828515625,21.94453Q27.180728515625,21.99925,27.250328515625,22.06889Q27.320028515625,22.13854,27.374728515625,22.22043Q27.429428515625,22.30232,27.467128515625,22.39332Q27.504828515625,22.48431,27.524028515625,22.58091Q27.543228515625,22.677509999999998,27.543228515625,22.776ZM4.084228515625,29.272579999999998Q4.084228515625,29.37107,4.065013515625,29.46767Q4.045798515625,29.5643,4.008107515625,29.6553Q3.9704165156249998,29.746299999999998,3.915698515625,29.8281Q3.860979515625,29.91,3.791335515625,29.9797Q3.721691515625,30.049300000000002,3.639798515625,30.104Q3.557906515625,30.1588,3.466911515625,30.1965Q3.375917515625,30.234099999999998,3.279318515625,30.2534Q3.182719915625,30.2726,3.084228515625,30.2726Q2.985737115625,30.2726,2.889138515625,30.2534Q2.792539515625,30.234099999999998,2.701545515625,30.1965Q2.610550515625,30.1588,2.528658515625,30.104Q2.446765515625,30.049300000000002,2.377121515625,29.9797Q2.307477515625,29.91,2.252758515625,29.8281Q2.1980405156250002,29.746299999999998,2.160349515625,29.6553Q2.122658515625,29.5643,2.103443515625,29.46767Q2.084228515625,29.37107,2.084228515625,29.272579999999998Q2.084228515625,29.17408,2.103443515625,29.077489999999997Q2.122658515625,28.980890000000002,2.160349515625,28.88989Q2.1980405156250002,28.7989,2.252758515625,28.717Q2.307477515625,28.635109999999997,2.377121515625,28.565469999999998Q2.446765515625,28.495820000000002,2.528658515625,28.441110000000002Q2.610550515625,28.38639,2.701545515625,28.3487Q2.792539515625,28.311,2.889138515625,28.29179Q2.985737115625,28.272579999999998,3.084228515625,28.272579999999998Q3.182719915625,28.272579999999998,3.279318515625,28.29179Q3.375917515625,28.311,3.466911515625,28.3487Q3.557906515625,28.38639,3.639798515625,28.441110000000002Q3.721691515625,28.495820000000002,3.791335515625,28.565469999999998Q3.860979515625,28.635109999999997,3.915698515625,28.717Q3.9704165156249998,28.7989,4.008107515625,28.88989Q4.045798515625,28.980890000000002,4.065013515625,29.077489999999997Q4.084228515625,29.17408,4.084228515625,29.272579999999998Z" fill="#FFFFFF" fill-opacity="1"/></g><g><path d="M8.999984741210938,29L30.749984741210938,29Q31.26778474121094,29,31.633884741210938,28.6339Q31.999984741210938,28.2678,31.999984741210938,27.75L31.999984741210938,13.5Q31.999984741210938,13.4015086,32.019184741210935,13.30491Q32.03838474121093,13.208311,32.076084741210934,13.117317Q32.113784741210935,13.026322,32.16848474121094,12.94443Q32.223184741210936,12.862537,32.29288474121094,12.792893Q32.362484741210935,12.723249,32.44438474121094,12.66853Q32.52628474121094,12.613812,32.61728474121094,12.576121Q32.70828474121094,12.53843,32.80488474121094,12.519214999999999Q32.901484741210936,12.5,32.99998474121094,12.5Q33.09848474121094,12.5,33.195084741210934,12.519214999999999Q33.291684741210936,12.53843,33.38268474121094,12.576121Q33.47368474121094,12.613812,33.555584741210936,12.66853Q33.63748474121094,12.723249,33.707084741210934,12.792893Q33.77678474121094,12.862537,33.831484741210936,12.94443Q33.88618474121094,13.026322,33.92388474121094,13.117317Q33.96158474121094,13.208311,33.98078474121094,13.30491Q33.99998474121094,13.4015086,33.99998474121094,13.5L33.99998474121094,27.75Q33.99998474121094,29.0962,33.04808474121094,30.0481Q32.096184741210934,31,30.749984741210938,31L8.999984741210938,31Q8.901493341210937,31,8.804894741210937,30.9808Q8.708295741210938,30.9616,8.617301741210937,30.9239Q8.526306741210938,30.8862,8.444414741210938,30.8315Q8.362521741210937,30.7768,8.292877741210937,30.7071Q8.223233741210937,30.6375,8.168514741210938,30.5556Q8.113796741210937,30.4737,8.076105741210938,30.3827Q8.038414741210937,30.2917,8.019199741210937,30.1951Q7.9999847412109375,30.0985,7.9999847412109375,30Q7.9999847412109375,29.9015,8.019199741210937,29.8049Q8.038414741210937,29.7083,8.076105741210938,29.6173Q8.113796741210937,29.5263,8.168514741210938,29.4444Q8.223233741210937,29.3625,8.292877741210937,29.2929Q8.362521741210937,29.2232,8.444414741210938,29.1685Q8.526306741210938,29.113799999999998,8.617301741210937,29.0761Q8.708295741210938,29.0384,8.804894741210937,29.019199999999998Q8.901493341210937,29,8.999984741210938,29ZM9.999984741210938,30Q9.999984741210938,30.0985,9.980769741210938,30.1951Q9.961554741210938,30.2917,9.923863741210937,30.3827Q9.886172741210938,30.4737,9.831454741210937,30.5556Q9.776735741210938,30.6375,9.707091741210938,30.7071Q9.637447741210938,30.7768,9.555554741210937,30.8315Q9.473662741210937,30.8862,9.382667741210938,30.9239Q9.291673741210937,30.9616,9.195074741210938,30.9808Q9.098476141210938,31,8.999984741210938,31Q8.901493341210937,31,8.804894741210937,30.9808Q8.708295741210938,30.9616,8.617301741210937,30.9239Q8.526306741210938,30.8862,8.444414741210938,30.8315Q8.362521741210937,30.7768,8.292877741210937,30.7071Q8.223233741210937,30.6375,8.168514741210938,30.5556Q8.113796741210937,30.4737,8.076105741210938,30.3827Q8.038414741210937,30.2917,8.019199741210937,30.1951Q7.9999847412109375,30.0985,7.9999847412109375,30Q7.9999847412109375,29.9015,8.019199741210937,29.8049Q8.038414741210937,29.7083,8.076105741210938,29.6173Q8.113796741210937,29.5263,8.168514741210938,29.4444Q8.223233741210937,29.3625,8.292877741210937,29.2929Q8.362521741210937,29.2232,8.444414741210938,29.1685Q8.526306741210938,29.113799999999998,8.617301741210937,29.0761Q8.708295741210938,29.0384,8.804894741210937,29.019199999999998Q8.901493341210937,29,8.999984741210938,29Q9.098476141210938,29,9.195074741210938,29.019199999999998Q9.291673741210937,29.0384,9.382667741210938,29.0761Q9.473662741210937,29.113799999999998,9.555554741210937,29.1685Q9.637447741210938,29.2232,9.707091741210938,29.2929Q9.776735741210938,29.3625,9.831454741210937,29.4444Q9.886172741210938,29.5263,9.923863741210937,29.6173Q9.961554741210938,29.7083,9.980769741210938,29.8049Q9.999984741210938,29.9015,9.999984741210938,30ZM33.99998474121094,13.5Q33.99998474121094,13.5984914,33.98078474121094,13.69509Q33.96158474121094,13.791689,33.92388474121094,13.882683Q33.88618474121094,13.973678,33.831484741210936,14.05557Q33.77678474121094,14.137463,33.707084741210934,14.207107Q33.63748474121094,14.276751,33.555584741210936,14.33147Q33.47368474121094,14.386188,33.38268474121094,14.423879Q33.291684741210936,14.46157,33.195084741210934,14.480785000000001Q33.09848474121094,14.5,32.99998474121094,14.5Q32.901484741210936,14.5,32.80488474121094,14.480785000000001Q32.70828474121094,14.46157,32.61728474121094,14.423879Q32.52628474121094,14.386188,32.44438474121094,14.33147Q32.362484741210935,14.276751,32.29288474121094,14.207107Q32.223184741210936,14.137463,32.16848474121094,14.05557Q32.113784741210935,13.973678,32.076084741210934,13.882683Q32.03838474121093,13.791689,32.019184741210935,13.69509Q31.999984741210938,13.5984914,31.999984741210938,13.5Q31.999984741210938,13.4015086,32.019184741210935,13.30491Q32.03838474121093,13.208311,32.076084741210934,13.117317Q32.113784741210935,13.026322,32.16848474121094,12.94443Q32.223184741210936,12.862537,32.29288474121094,12.792893Q32.362484741210935,12.723249,32.44438474121094,12.66853Q32.52628474121094,12.613812,32.61728474121094,12.576121Q32.70828474121094,12.53843,32.80488474121094,12.519214999999999Q32.901484741210936,12.5,32.99998474121094,12.5Q33.09848474121094,12.5,33.195084741210934,12.519214999999999Q33.291684741210936,12.53843,33.38268474121094,12.576121Q33.47368474121094,12.613812,33.555584741210936,12.66853Q33.63748474121094,12.723249,33.707084741210934,12.792893Q33.77678474121094,12.862537,33.831484741210936,12.94443Q33.88618474121094,13.026322,33.92388474121094,13.117317Q33.96158474121094,13.208311,33.98078474121094,13.30491Q33.99998474121094,13.4015086,33.99998474121094,13.5Z" fill="#FFFFFF" fill-opacity="1"/></g><g><path d="M27.833831787109375,11.5L14.333831787109375,11.5Q14.235340387109375,11.5,14.138741787109375,11.480785000000001Q14.042142787109375,11.46157,13.951148787109375,11.423879Q13.860153787109375,11.386188,13.778261787109376,11.33147Q13.696368787109375,11.276751,13.626724787109374,11.207107Q13.557080787109374,11.137463,13.502361787109376,11.05557Q13.447643787109374,10.973678,13.409952787109376,10.882683Q13.372261787109375,10.791689,13.353046787109374,10.69509Q13.333831787109375,10.5984914,13.333831787109375,10.5Q13.333831787109375,10.4015086,13.353046787109374,10.30491Q13.372261787109375,10.208311,13.409952787109376,10.117317Q13.447643787109374,10.026322,13.502361787109376,9.94443Q13.557080787109374,9.862537,13.626724787109374,9.792893Q13.696368787109375,9.723249,13.778261787109376,9.66853Q13.860153787109375,9.613812,13.951148787109375,9.576121Q14.042142787109375,9.53843,14.138741787109375,9.519214999999999Q14.235340387109375,9.5,14.333831787109375,9.5L27.833831787109375,9.5Q27.932331787109376,9.5,28.028931787109375,9.519214999999999Q28.125531787109374,9.53843,28.216531787109375,9.576121Q28.307531787109376,9.613812,28.389431787109373,9.66853Q28.471331787109374,9.723249,28.540931787109376,9.792893Q28.610631787109376,9.862537,28.665331787109373,9.94443Q28.720031787109377,10.026322,28.757731787109375,10.117317Q28.795431787109376,10.208311,28.814631787109377,10.30491Q28.833831787109375,10.4015086,28.833831787109375,10.5Q28.833831787109375,10.5984914,28.814631787109377,10.69509Q28.795431787109376,10.791689,28.757731787109375,10.882683Q28.720031787109377,10.973678,28.665331787109373,11.05557Q28.610631787109376,11.137463,28.540931787109376,11.207107Q28.471331787109374,11.276751,28.389431787109373,11.33147Q28.307531787109376,11.386188,28.216531787109375,11.423879Q28.125531787109374,11.46157,28.028931787109375,11.480785000000001Q27.932331787109376,11.5,27.833831787109375,11.5ZM28.833831787109375,10.5Q28.833831787109375,10.5984914,28.814631787109377,10.69509Q28.795431787109376,10.791689,28.757731787109375,10.882683Q28.720031787109377,10.973678,28.665331787109373,11.05557Q28.610631787109376,11.137463,28.540931787109376,11.207107Q28.471331787109374,11.276751,28.389431787109373,11.33147Q28.307531787109376,11.386188,28.216531787109375,11.423879Q28.125531787109374,11.46157,28.028931787109375,11.480785000000001Q27.932331787109376,11.5,27.833831787109375,11.5Q27.735331787109374,11.5,27.638731787109375,11.480785000000001Q27.542131787109376,11.46157,27.451131787109375,11.423879Q27.360131787109374,11.386188,27.278231787109377,11.33147Q27.196331787109376,11.276751,27.126731787109374,11.207107Q27.057131787109377,11.137463,27.002331787109377,11.05557Q26.947631787109373,10.973678,26.909931787109375,10.882683Q26.872231787109374,10.791689,26.853031787109373,10.69509Q26.833831787109375,10.5984914,26.833831787109375,10.5Q26.833831787109375,10.4015086,26.853031787109373,10.30491Q26.872231787109374,10.208311,26.909931787109375,10.117317Q26.947631787109373,10.026322,27.002331787109377,9.94443Q27.057131787109377,9.862537,27.126731787109374,9.792893Q27.196331787109376,9.723249,27.278231787109377,9.66853Q27.360131787109374,9.613812,27.451131787109375,9.576121Q27.542131787109376,9.53843,27.638731787109375,9.519214999999999Q27.735331787109374,9.5,27.833831787109375,9.5Q27.932331787109376,9.5,28.028931787109375,9.519214999999999Q28.125531787109374,9.53843,28.216531787109375,9.576121Q28.307531787109376,9.613812,28.389431787109373,9.66853Q28.471331787109374,9.723249,28.540931787109376,9.792893Q28.610631787109376,9.862537,28.665331787109373,9.94443Q28.720031787109377,10.026322,28.757731787109375,10.117317Q28.795431787109376,10.208311,28.814631787109377,10.30491Q28.833831787109375,10.4015086,28.833831787109375,10.5ZM15.333831787109375,10.5Q15.333831787109375,10.5984914,15.314616787109376,10.69509Q15.295401787109375,10.791689,15.257710787109374,10.882683Q15.220019787109376,10.973678,15.165301787109374,11.05557Q15.110582787109376,11.137463,15.040938787109376,11.207107Q14.971294787109375,11.276751,14.889401787109374,11.33147Q14.807509787109375,11.386188,14.716514787109375,11.423879Q14.625520787109375,11.46157,14.528921787109375,11.480785000000001Q14.432323187109375,11.5,14.333831787109375,11.5Q14.235340387109375,11.5,14.138741787109375,11.480785000000001Q14.042142787109375,11.46157,13.951148787109375,11.423879Q13.860153787109375,11.386188,13.778261787109376,11.33147Q13.696368787109375,11.276751,13.626724787109374,11.207107Q13.557080787109374,11.137463,13.502361787109376,11.05557Q13.447643787109374,10.973678,13.409952787109376,10.882683Q13.372261787109375,10.791689,13.353046787109374,10.69509Q13.333831787109375,10.5984914,13.333831787109375,10.5Q13.333831787109375,10.4015086,13.353046787109374,10.30491Q13.372261787109375,10.208311,13.409952787109376,10.117317Q13.447643787109374,10.026322,13.502361787109376,9.94443Q13.557080787109374,9.862537,13.626724787109374,9.792893Q13.696368787109375,9.723249,13.778261787109376,9.66853Q13.860153787109375,9.613812,13.951148787109375,9.576121Q14.042142787109375,9.53843,14.138741787109375,9.519214999999999Q14.235340387109375,9.5,14.333831787109375,9.5Q14.432323187109375,9.5,14.528921787109375,9.519214999999999Q14.625520787109375,9.53843,14.716514787109375,9.576121Q14.807509787109375,9.613812,14.889401787109374,9.66853Q14.971294787109375,9.723249,15.040938787109376,9.792893Q15.110582787109376,9.862537,15.165301787109374,9.94443Q15.220019787109376,10.026322,15.257710787109374,10.117317Q15.295401787109375,10.208311,15.314616787109376,10.30491Q15.333831787109375,10.4015086,15.333831787109375,10.5Z" fill="#FFFFFF" fill-opacity="1"/></g><g><path d="M9.833114624023438,11.5L8.333114624023438,11.5Q8.234623224023437,11.5,8.138024624023437,11.480785000000001Q8.041425624023438,11.46157,7.950431624023437,11.423879Q7.859436624023438,11.386188,7.777544624023437,11.33147Q7.695651624023437,11.276751,7.626007624023438,11.207107Q7.5563636240234375,11.137463,7.501644624023437,11.05557Q7.446926624023438,10.973678,7.409235624023437,10.882683Q7.3715446240234375,10.791689,7.3523296240234375,10.69509Q7.3331146240234375,10.5984914,7.3331146240234375,10.5Q7.3331146240234375,10.4015086,7.3523296240234375,10.30491Q7.3715446240234375,10.208311,7.409235624023437,10.117317Q7.446926624023438,10.026322,7.501644624023437,9.94443Q7.5563636240234375,9.862537,7.626007624023438,9.792893Q7.695651624023437,9.723249,7.777544624023437,9.66853Q7.859436624023438,9.613812,7.950431624023437,9.576121Q8.041425624023438,9.53843,8.138024624023437,9.519214999999999Q8.234623224023437,9.5,8.333114624023438,9.5L9.833114624023438,9.5Q9.931604624023437,9.5,10.028204624023438,9.519214999999999Q10.124804624023437,9.53843,10.215794624023438,9.576121Q10.306794624023437,9.613812,10.388684624023437,9.66853Q10.470574624023438,9.723249,10.540224624023438,9.792893Q10.609864624023437,9.862537,10.664584624023437,9.94443Q10.719304624023437,10.026322,10.756994624023438,10.117317Q10.794684624023438,10.208311,10.813894624023437,10.30491Q10.833114624023438,10.4015086,10.833114624023438,10.5Q10.833114624023438,10.5984914,10.813894624023437,10.69509Q10.794684624023438,10.791689,10.756994624023438,10.882683Q10.719304624023437,10.973678,10.664584624023437,11.05557Q10.609864624023437,11.137463,10.540224624023438,11.207107Q10.470574624023438,11.276751,10.388684624023437,11.33147Q10.306794624023437,11.386188,10.215794624023438,11.423879Q10.124804624023437,11.46157,10.028204624023438,11.480785000000001Q9.931604624023437,11.5,9.833114624023438,11.5ZM10.833114624023438,10.5Q10.833114624023438,10.5984914,10.813894624023437,10.69509Q10.794684624023438,10.791689,10.756994624023438,10.882683Q10.719304624023437,10.973678,10.664584624023437,11.05557Q10.609864624023437,11.137463,10.540224624023438,11.207107Q10.470574624023438,11.276751,10.388684624023437,11.33147Q10.306794624023437,11.386188,10.215794624023438,11.423879Q10.124804624023437,11.46157,10.028204624023438,11.480785000000001Q9.931604624023437,11.5,9.833114624023438,11.5Q9.734624624023438,11.5,9.638024624023437,11.480785000000001Q9.541424624023438,11.46157,9.450434624023437,11.423879Q9.359434624023438,11.386188,9.277544624023438,11.33147Q9.195651624023437,11.276751,9.126007624023437,11.207107Q9.056363624023437,11.137463,9.001644624023438,11.05557Q8.946926624023437,10.973678,8.909234624023437,10.882683Q8.871543624023438,10.791689,8.852329624023437,10.69509Q8.833114624023438,10.5984914,8.833114624023438,10.5Q8.833114624023438,10.4015086,8.852329624023437,10.30491Q8.871543624023438,10.208311,8.909234624023437,10.117317Q8.946926624023437,10.026322,9.001644624023438,9.94443Q9.056363624023437,9.862537,9.126007624023437,9.792893Q9.195651624023437,9.723249,9.277544624023438,9.66853Q9.359434624023438,9.613812,9.450434624023437,9.576121Q9.541424624023438,9.53843,9.638024624023437,9.519214999999999Q9.734624624023438,9.5,9.833114624023438,9.5Q9.931604624023437,9.5,10.028204624023438,9.519214999999999Q10.124804624023437,9.53843,10.215794624023438,9.576121Q10.306794624023437,9.613812,10.388684624023437,9.66853Q10.470574624023438,9.723249,10.540224624023438,9.792893Q10.609864624023437,9.862537,10.664584624023437,9.94443Q10.719304624023437,10.026322,10.756994624023438,10.117317Q10.794684624023438,10.208311,10.813894624023437,10.30491Q10.833114624023438,10.4015086,10.833114624023438,10.5ZM9.333114624023438,10.5Q9.333114624023438,10.5984914,9.313899624023438,10.69509Q9.294684624023438,10.791689,9.256993624023437,10.882683Q9.219302624023438,10.973678,9.164584624023437,11.05557Q9.109865624023438,11.137463,9.040221624023438,11.207107Q8.970577624023438,11.276751,8.888684624023437,11.33147Q8.806792624023437,11.386188,8.715797624023438,11.423879Q8.624803624023437,11.46157,8.528204624023438,11.480785000000001Q8.431606024023438,11.5,8.333114624023438,11.5Q8.234623224023437,11.5,8.138024624023437,11.480785000000001Q8.041425624023438,11.46157,7.950431624023437,11.423879Q7.859436624023438,11.386188,7.777544624023437,11.33147Q7.695651624023437,11.276751,7.626007624023438,11.207107Q7.5563636240234375,11.137463,7.501644624023437,11.05557Q7.446926624023438,10.973678,7.409235624023437,10.882683Q7.3715446240234375,10.791689,7.3523296240234375,10.69509Q7.3331146240234375,10.5984914,7.3331146240234375,10.5Q7.3331146240234375,10.4015086,7.3523296240234375,10.30491Q7.3715446240234375,10.208311,7.409235624023437,10.117317Q7.446926624023438,10.026322,7.501644624023437,9.94443Q7.5563636240234375,9.862537,7.626007624023438,9.792893Q7.695651624023437,9.723249,7.777544624023437,9.66853Q7.859436624023438,9.613812,7.950431624023437,9.576121Q8.041425624023438,9.53843,8.138024624023437,9.519214999999999Q8.234623224023437,9.5,8.333114624023438,9.5Q8.431606024023438,9.5,8.528204624023438,9.519214999999999Q8.624803624023437,9.53843,8.715797624023438,9.576121Q8.806792624023437,9.613812,8.888684624023437,9.66853Q8.970577624023438,9.723249,9.040221624023438,9.792893Q9.109865624023438,9.862537,9.164584624023437,9.94443Q9.219302624023438,10.026322,9.256993624023437,10.117317Q9.294684624023438,10.208311,9.313899624023438,10.30491Q9.333114624023438,10.4015086,9.333114624023438,10.5Z" fill="#FFFFFF" fill-opacity="1"/></g><g><path d="M2,20.25L2,13.5Q2,13.4015086,2.019215,13.30491Q2.03843,13.208311,2.076121,13.117317Q2.1138120000000002,13.026322,2.16853,12.94443Q2.223249,12.862537,2.292893,12.792893Q2.362537,12.723249,2.44443,12.66853Q2.526322,12.613812,2.617317,12.576121Q2.708311,12.53843,2.80491,12.519214999999999Q2.9015086,12.5,3,12.5Q3.0984914,12.5,3.19509,12.519214999999999Q3.291689,12.53843,3.382683,12.576121Q3.473678,12.613812,3.55557,12.66853Q3.637463,12.723249,3.707107,12.792893Q3.776751,12.862537,3.83147,12.94443Q3.8861879999999998,13.026322,3.923879,13.117317Q3.96157,13.208311,3.980785,13.30491Q4,13.4015086,4,13.5L4,20.25Q4,20.348489999999998,3.980785,20.44509Q3.96157,20.54169,3.923879,20.63268Q3.8861879999999998,20.72368,3.83147,20.80557Q3.776751,20.88746,3.707107,20.95711Q3.637463,21.02675,3.55557,21.08147Q3.473678,21.13619,3.382683,21.17388Q3.291689,21.211570000000002,3.19509,21.23078Q3.0984914,21.25,3,21.25Q2.9015086,21.25,2.80491,21.23078Q2.708311,21.211570000000002,2.617317,21.17388Q2.526322,21.13619,2.44443,21.08147Q2.362537,21.02675,2.292893,20.95711Q2.223249,20.88746,2.16853,20.80557Q2.1138120000000002,20.72368,2.076121,20.63268Q2.03843,20.54169,2.019215,20.44509Q2,20.348489999999998,2,20.25ZM4,20.25Q4,20.348489999999998,3.980785,20.44509Q3.96157,20.54169,3.923879,20.63268Q3.8861879999999998,20.72368,3.83147,20.80557Q3.776751,20.88746,3.707107,20.95711Q3.637463,21.02675,3.55557,21.08147Q3.473678,21.13619,3.382683,21.17388Q3.291689,21.211570000000002,3.19509,21.23078Q3.0984914,21.25,3,21.25Q2.9015086,21.25,2.80491,21.23078Q2.708311,21.211570000000002,2.617317,21.17388Q2.526322,21.13619,2.44443,21.08147Q2.362537,21.02675,2.292893,20.95711Q2.223249,20.88746,2.16853,20.80557Q2.1138120000000002,20.72368,2.076121,20.63268Q2.03843,20.54169,2.019215,20.44509Q2,20.348489999999998,2,20.25Q2,20.151510000000002,2.019215,20.05491Q2.03843,19.95831,2.076121,19.86732Q2.1138120000000002,19.77632,2.16853,19.69443Q2.223249,19.61254,2.292893,19.54289Q2.362537,19.47325,2.44443,19.41853Q2.526322,19.36381,2.617317,19.32612Q2.708311,19.288429999999998,2.80491,19.26921Q2.9015086,19.25,3,19.25Q3.0984914,19.25,3.19509,19.26921Q3.291689,19.288429999999998,3.382683,19.32612Q3.473678,19.36381,3.55557,19.41853Q3.637463,19.47325,3.707107,19.54289Q3.776751,19.61254,3.83147,19.69443Q3.8861879999999998,19.77632,3.923879,19.86732Q3.96157,19.95831,3.980785,20.05491Q4,20.151510000000002,4,20.25ZM4,13.5Q4,13.5984914,3.980785,13.69509Q3.96157,13.791689,3.923879,13.882683Q3.8861879999999998,13.973678,3.83147,14.05557Q3.776751,14.137463,3.707107,14.207107Q3.637463,14.276751,3.55557,14.33147Q3.473678,14.386188,3.382683,14.423879Q3.291689,14.46157,3.19509,14.480785000000001Q3.0984914,14.5,3,14.5Q2.9015086,14.5,2.80491,14.480785000000001Q2.708311,14.46157,2.617317,14.423879Q2.526322,14.386188,2.44443,14.33147Q2.362537,14.276751,2.292893,14.207107Q2.223249,14.137463,2.16853,14.05557Q2.1138120000000002,13.973678,2.076121,13.882683Q2.03843,13.791689,2.019215,13.69509Q2,13.5984914,2,13.5Q2,13.4015086,2.019215,13.30491Q2.03843,13.208311,2.076121,13.117317Q2.1138120000000002,13.026322,2.16853,12.94443Q2.223249,12.862537,2.292893,12.792893Q2.362537,12.723249,2.44443,12.66853Q2.526322,12.613812,2.617317,12.576121Q2.708311,12.53843,2.80491,12.519214999999999Q2.9015086,12.5,3,12.5Q3.0984914,12.5,3.19509,12.519214999999999Q3.291689,12.53843,3.382683,12.576121Q3.473678,12.613812,3.55557,12.66853Q3.637463,12.723249,3.707107,12.792893Q3.776751,12.862537,3.83147,12.94443Q3.8861879999999998,13.026322,3.923879,13.117317Q3.96157,13.208311,3.980785,13.30491Q4,13.4015086,4,13.5Z" fill="#FFFFFF" fill-opacity="1"/></g></g></svg>