<svg xmlns="http://www.w3.org/2000/svg" xmlns:xlink="http://www.w3.org/1999/xlink" fill="none" version="1.1" width="66" height="17" viewBox="0 0 66 17"><g style="mix-blend-mode:passthrough"><path d="M5.27734,11.9993Q4.99935,13.0566,4.3112,13.6764Q3.6276,14.2917,2.60221,14.2917Q1.24414,14.2917,0.738281,13.2663Q0.236979,12.2363,0.533203,10.0762Q0.82487,7.88411,1.59961,6.85872Q2.37891,5.83333,3.70964,5.83333Q4.70312,5.83333,5.22721,6.43034Q5.75586,7.02734,5.83789,7.99349L4.5345,8.19401Q4.49349,7.75651,4.28841,7.41927Q4.08789,7.07747,3.60026,7.07747Q2.98047,7.07747,2.57487,7.80664Q2.16927,8.53581,1.93229,10.0762Q1.70898,11.6029,1.89128,12.3275Q2.07357,13.0475,2.75716,13.0475Q3.16276,13.0475,3.51367,12.7376Q3.86458,12.4232,4.04688,11.8262L5.27734,11.9993ZM7.25977,14.2917L5.90169,14.2917L7.56966,2.625L8.92773,2.625L8.36719,6.60352Q8.7181,6.18425,9.14193,6.01107Q9.57031,5.83333,9.9349,5.83333Q10.4408,5.83333,10.8372,6.06576Q11.2383,6.29818,11.4342,6.83594Q11.6302,7.3737,11.4889,8.29883L10.6367,14.2917L9.2513,14.2917L10.0762,8.53581Q10.2858,7.07747,9.347,7.07747Q8.4082,7.07747,8.10286,8.48112L7.25977,14.2917ZM16.9987,14.2917L15.709,14.2917L15.7819,13.4349Q15.472,13.8268,15.0846,14.0592Q14.7018,14.2917,14.2826,14.2917Q13.6081,14.2917,13.125,13.8633Q12.6465,13.4303,12.4642,12.4551Q12.2819,11.4798,12.5189,9.85287Q12.8105,7.80664,13.5853,6.82227Q14.3646,5.83333,15.39,5.83333Q16.3242,5.83333,16.748,6.63086L16.8438,5.83333L18.2018,5.83333L16.9987,14.2917ZM13.9043,10.0033Q13.7904,10.8555,13.7812,11.5482Q13.7767,12.2363,13.9727,12.6419Q14.1686,13.0475,14.6471,13.0475Q14.9844,13.0475,15.2533,12.8151Q15.5267,12.5827,15.7227,12.2135Q15.9186,11.8398,16.0326,11.4251L16.4792,8.45833Q16.4928,7.84766,16.2331,7.46484Q15.9779,7.07747,15.513,7.07747Q15.0801,7.07747,14.7565,7.47852Q14.4375,7.875,14.2279,8.54037Q14.0182,9.20573,13.9043,10.0033ZM20.4622,4.95833Q20.0703,4.95833,19.8743,4.7168Q19.6784,4.4707,19.7331,4.08333Q19.8014,3.71419,20.0384,3.46354Q20.2799,3.20833,20.7129,3.20833Q21.1185,3.20833,21.3145,3.46354Q21.5104,3.71419,21.4421,4.08333Q21.3828,4.4707,21.1367,4.7168Q20.8952,4.95833,20.4622,4.95833ZM19.7878,14.2917L18.4297,14.2917L19.6328,5.83333L20.9909,5.83333L19.7878,14.2917ZM22.7181,14.2917L21.36,14.2917L22.5814,5.83333L23.8529,5.83333L23.7845,6.74935Q24.1354,6.25716,24.5592,6.04753Q24.9876,5.83333,25.3932,5.83333Q25.8991,5.83333,26.2956,6.07031Q26.6966,6.30729,26.8835,6.8405Q27.0749,7.3737,26.9336,8.28516L26.0677,14.2917L24.6914,14.2917L25.5482,8.52214Q25.7578,7.07747,24.8327,7.07747Q24.3861,7.07747,24.0488,7.48763Q23.7116,7.89323,23.5612,8.53581L22.7181,14.2917ZM32.2747,14.2917L31.9102,10.5775L29.5449,10.5775L28.2826,14.2917L26.7878,14.2917L30.9987,3.20833L32.4844,3.20833L33.7467,14.2917L32.2747,14.2917ZM30.6068,7.63346L29.9915,9.33333L31.7689,9.33333L31.6048,7.76562Q31.5592,7.41471,31.5182,6.95443Q31.4772,6.48958,31.4408,6.02474Q31.4089,5.55534,31.4225,5.20443Q31.3223,5.55534,31.1764,6.01563Q31.0306,6.47591,30.8757,6.90885Q30.7207,7.33724,30.6068,7.63346ZM35.8431,14.2917L34.485,14.2917L35.7064,5.83333L36.9779,5.83333L36.9095,6.74935Q37.2604,6.25716,37.6842,6.04753Q38.1126,5.83333,38.5182,5.83333Q39.0241,5.83333,39.4206,6.07031Q39.8216,6.30729,40.0085,6.8405Q40.1999,7.3737,40.0586,8.28516L39.1927,14.2917L37.8164,14.2917L38.6732,8.52214Q38.8828,7.07747,37.9577,7.07747Q37.5111,7.07747,37.1738,7.48763Q36.8366,7.89323,36.6862,8.53581L35.8431,14.2917ZM45.582,14.2917L44.2923,14.2917L44.3652,13.4349Q44.0553,13.8268,43.668,14.0592Q43.2852,14.2917,42.8659,14.2917Q42.1914,14.2917,41.7083,13.8633Q41.2298,13.4303,41.0475,12.4551Q40.8652,11.4798,41.1022,9.85287Q41.3939,7.80664,42.1686,6.82227Q42.9479,5.83333,43.9733,5.83333Q44.9076,5.83333,45.3314,6.63086L45.4271,5.83333L46.7852,5.83333L45.582,14.2917ZM42.4876,10.0033Q42.3737,10.8555,42.3646,11.5482Q42.36,12.2363,42.556,12.6419Q42.7519,13.0475,43.2305,13.0475Q43.5677,13.0475,43.8366,12.8151Q44.11,12.5827,44.306,12.2135Q44.5019,11.8398,44.6159,11.4251L45.0625,8.45833Q45.0762,7.84766,44.8164,7.46484Q44.5612,7.07747,44.0964,7.07747Q43.6634,7.07747,43.3398,7.47852Q43.0208,7.875,42.8112,8.54037Q42.6016,9.20573,42.4876,10.0033ZM48.3848,14.2917L47.0267,14.2917L48.6947,2.625L50.0527,2.625L48.3848,14.2917ZM53.179,13.9362Q52.7598,15.112,52.3861,15.832Q52.0169,16.5566,51.5384,16.8802Q51.0645,17.2083,50.3216,17.2083Q50.0163,17.2083,49.7109,17.1582Q49.401,17.1126,49.0501,16.985L49.2461,15.7956Q49.4967,15.8639,49.7383,15.9141Q49.9753,15.9642,50.2259,15.9642Q50.6315,15.9642,50.9733,15.6087Q51.3151,15.2578,51.5111,14.7018L50.5905,5.83333L51.9759,5.83333L52.3542,11.0514Q52.3815,11.4661,52.3997,11.8854Q52.4225,12.3001,52.4362,12.7148Q52.5775,12.3001,52.7096,11.8809Q52.8418,11.4616,52.9831,11.0469L54.6921,5.83333L56.0911,5.83333L53.179,13.9362ZM56.9661,11.9993Q56.998,12.5143,57.3125,12.7832Q57.627,13.0475,58.0326,13.0475Q58.3561,13.0475,58.625,12.8561Q58.8984,12.6602,58.9714,12.209Q59.0534,11.7669,58.8848,11.4069Q58.7161,11.0469,58.4017,10.7233Q58.0872,10.3952,57.7318,10.0671Q57.3763,9.73893,57.0801,9.36979Q56.7884,8.99609,56.6517,8.52214Q56.5195,8.04818,56.6608,7.44661Q56.7884,6.86784,57.1302,6.51693Q57.472,6.16146,57.9414,5.9974Q58.4108,5.83333,58.8984,5.83333Q59.459,5.83333,59.9557,6.07487Q60.4525,6.31641,60.7441,6.82682Q61.0404,7.33724,60.972,8.153L59.7689,8.153Q59.7962,7.58789,59.5273,7.33268Q59.263,7.07747,58.8984,7.07747Q58.6068,7.07747,58.3607,7.23698Q58.1146,7.39648,58.0326,7.82031Q57.9642,8.16211,58.1374,8.47656Q58.3105,8.78646,58.6113,9.0918Q58.9121,9.39714,59.263,9.72982Q59.6139,10.0579,59.9056,10.4453Q60.2018,10.8327,60.3477,11.2975Q60.498,11.7578,60.3841,12.3548Q60.2702,13.002,59.8919,13.4349Q59.5182,13.8633,58.9987,14.0775Q58.4792,14.2917,57.9186,14.2917Q57.3444,14.2917,56.834,14.041Q56.3236,13.7949,56.0091,13.2891Q55.6947,12.7786,55.6947,11.9993L56.9661,11.9993ZM61.5052,11.8581L62.2617,7.07747L61.3503,7.07747L61.5326,5.83333L62.4577,5.83333L62.8223,3.57747L64.1074,3.57747L63.7565,5.83333L65.3424,5.83333L65.1602,7.07747L63.5605,7.07747L62.8633,11.7077Q62.7493,12.4688,62.8542,12.8379Q62.959,13.2025,63.3509,13.2025Q63.6881,13.2025,64.0664,12.9382L64.4993,14.0729Q64.0664,14.2689,63.597,14.3783Q63.1276,14.4922,62.6947,14.4329Q62.2617,14.3783,61.9427,14.1094Q61.6283,13.8405,61.4961,13.2936Q61.3639,12.7467,61.5052,11.8581Z" fill="#FFFFFF" fill-opacity="1"/></g></svg>