<svg xmlns="http://www.w3.org/2000/svg" xmlns:xlink="http://www.w3.org/1999/xlink" fill="none" version="1.1" width="42" height="42" viewBox="0 0 42 42"><defs><clipPath id="master_svg0_11_0012"><rect x="0" y="0" width="42" height="42" rx="0"/></clipPath></defs><g clip-path="url(#master_svg0_11_0012)"><g><path d="M34,20.999755859375L34,5.249755859375Q34,4.939085859375,33.7803,4.719425859375Q33.5607,4.499755859375,33.25,4.499755859375L8.75,4.499755859375Q8.43934,4.499755859375,8.21967,4.719425859375Q8,4.939095859375,8,5.249755859375L8,36.749755859375Q8,37.060455859375,8.21968,37.280055859375Q8.43936,37.499755859375,8.75,37.499755859375L21,37.499755859375Q21.0985,37.499755859375,21.1951,37.518955859375Q21.2917,37.538255859375,21.3827,37.575855859375Q21.4737,37.613555859375,21.5556,37.668355859375Q21.6375,37.723055859375,21.7071,37.792655859375Q21.776699999999998,37.862355859375,21.8315,37.944255859375Q21.886200000000002,38.026055859375,21.9239,38.117055859375Q21.9616,38.208055859375,21.980800000000002,38.304655859375Q22,38.401255859375,22,38.499755859375Q22,38.598255859375,21.980800000000002,38.694855859375Q21.9616,38.791455859375,21.9239,38.882455859375Q21.886200000000002,38.973455859375,21.8315,39.055355859375Q21.776699999999998,39.137255859375,21.7071,39.206855859375Q21.6375,39.276555859375,21.5556,39.331255859375Q21.4737,39.385955859375,21.3827,39.423655859375Q21.2917,39.461355859375,21.1951,39.480555859375Q21.0985,39.499755859375,21,39.499755859375L8.75,39.499755859375Q7.610913,39.499755859375,6.805448,38.694255859375Q6,37.888855859375,6,36.749755859375L6,5.249755859375Q6,4.110667859375,6.805456,3.305211859375Q7.610912,2.499755859375,8.75,2.499755859375L33.25,2.499755859375Q34.3891,2.499755859375,35.1946,3.305215859375Q36,4.110667859375,36,5.249755859375L36,20.999755859375Q36,21.098255859375,35.9808,21.194855859375Q35.961600000000004,21.291455859375,35.9239,21.382455859375Q35.8862,21.473455859375,35.8315,21.555355859375Q35.776700000000005,21.637255859375,35.7071,21.706855859375Q35.6375,21.776555859375,35.5556,21.831255859375Q35.4737,21.885955859375,35.3827,21.923655859375Q35.2917,21.961355859375,35.1951,21.980555859375Q35.0985,21.999755859375,35,21.999755859375Q34.9015,21.999755859375,34.8049,21.980555859375Q34.7083,21.961355859375,34.6173,21.923655859375Q34.5263,21.885955859375,34.4444,21.831255859375Q34.3625,21.776555859375,34.2929,21.706855859375Q34.2232,21.637255859375,34.1685,21.555355859375Q34.1138,21.473455859375,34.0761,21.382455859375Q34.038399999999996,21.291455859375,34.0192,21.194855859375Q34,21.098255859375,34,20.999755859375ZM36,20.999755859375Q36,21.098255859375,35.9808,21.194855859375Q35.961600000000004,21.291455859375,35.9239,21.382455859375Q35.8862,21.473455859375,35.8315,21.555355859375Q35.776700000000005,21.637255859375,35.7071,21.706855859375Q35.6375,21.776555859375,35.5556,21.831255859375Q35.4737,21.885955859375,35.3827,21.923655859375Q35.2917,21.961355859375,35.1951,21.980555859375Q35.0985,21.999755859375,35,21.999755859375Q34.9015,21.999755859375,34.8049,21.980555859375Q34.7083,21.961355859375,34.6173,21.923655859375Q34.5263,21.885955859375,34.4444,21.831255859375Q34.3625,21.776555859375,34.2929,21.706855859375Q34.2232,21.637255859375,34.1685,21.555355859375Q34.1138,21.473455859375,34.0761,21.382455859375Q34.038399999999996,21.291455859375,34.0192,21.194855859375Q34,21.098255859375,34,20.999755859375Q34,20.901255859375,34.0192,20.804655859375Q34.038399999999996,20.708055859375,34.0761,20.617055859375Q34.1138,20.526055859375,34.1685,20.444255859375Q34.2232,20.362355859375,34.2929,20.292655859375Q34.3625,20.223055859375,34.4444,20.168355859375Q34.5263,20.113555859375,34.6173,20.075855859375Q34.7083,20.038255859375,34.8049,20.018955859375Q34.9015,19.999755859375,35,19.999755859375Q35.0985,19.999755859375,35.1951,20.018955859375Q35.2917,20.038255859375,35.3827,20.075855859375Q35.4737,20.113555859375,35.5556,20.168355859375Q35.6375,20.223055859375,35.7071,20.292655859375Q35.776700000000005,20.362355859375,35.8315,20.444255859375Q35.8862,20.526055859375,35.9239,20.617055859375Q35.961600000000004,20.708055859375,35.9808,20.804655859375Q36,20.901255859375,36,20.999755859375ZM22,38.499755859375Q22,38.598255859375,21.980800000000002,38.694855859375Q21.9616,38.791455859375,21.9239,38.882455859375Q21.886200000000002,38.973455859375,21.8315,39.055355859375Q21.776699999999998,39.137255859375,21.7071,39.206855859375Q21.6375,39.276555859375,21.5556,39.331255859375Q21.4737,39.385955859375,21.3827,39.423655859375Q21.2917,39.461355859375,21.1951,39.480555859375Q21.0985,39.499755859375,21,39.499755859375Q20.9015,39.499755859375,20.8049,39.480555859375Q20.7083,39.461355859375,20.6173,39.423655859375Q20.5263,39.385955859375,20.4444,39.331255859375Q20.3625,39.276555859375,20.2929,39.206855859375Q20.2232,39.137255859375,20.1685,39.055355859375Q20.113799999999998,38.973455859375,20.0761,38.882455859375Q20.0384,38.791455859375,20.019199999999998,38.694855859375Q20,38.598255859375,20,38.499755859375Q20,38.401255859375,20.019199999999998,38.304655859375Q20.0384,38.208055859375,20.0761,38.117055859375Q20.113799999999998,38.026055859375,20.1685,37.944255859375Q20.2232,37.862355859375,20.2929,37.792655859375Q20.3625,37.723055859375,20.4444,37.668355859375Q20.5263,37.613555859375,20.6173,37.575855859375Q20.7083,37.538255859375,20.8049,37.518955859375Q20.9015,37.499755859375,21,37.499755859375Q21.0985,37.499755859375,21.1951,37.518955859375Q21.2917,37.538255859375,21.3827,37.575855859375Q21.4737,37.613555859375,21.5556,37.668355859375Q21.6375,37.723055859375,21.7071,37.792655859375Q21.776699999999998,37.862355859375,21.8315,37.944255859375Q21.886200000000002,38.026055859375,21.9239,38.117055859375Q21.9616,38.208055859375,21.980800000000002,38.304655859375Q22,38.401255859375,22,38.499755859375Z" fill="#333333" fill-opacity="1"/></g><g><path d="M32.0625,27.124755859375L32.0625,38.499755859375Q32.0625,38.598255859375,32.043285,38.694855859375Q32.02407,38.791455859375,31.986379,38.882455859375Q31.948688,38.973455859375,31.89397,39.055355859375Q31.839251,39.137255859375,31.769607,39.206855859375Q31.699963,39.276555859375,31.61807,39.331255859375Q31.536178,39.385955859375,31.445183,39.423655859375Q31.354189,39.461355859375004,31.25759,39.480555859375Q31.1609914,39.499755859375,31.0625,39.499755859375Q30.9640086,39.499755859375,30.86741,39.480555859375Q30.770811,39.461355859375004,30.679817,39.423655859375Q30.588822,39.385955859375,30.50693,39.331255859375Q30.425037,39.276555859375,30.355393,39.206855859375Q30.285749,39.137255859375,30.23103,39.055355859375Q30.176312,38.973455859375,30.138621,38.882455859375Q30.100929999999998,38.791455859375,30.081715,38.694855859375Q30.0625,38.598255859375,30.0625,38.499755859375L30.0625,27.124755859375Q30.0625,27.026264459375,30.081715,26.929665859375Q30.100929999999998,26.833066859375,30.138621,26.742072859375Q30.176312,26.651077859375,30.23103,26.569185859375Q30.285749,26.487292859375,30.355393,26.417648859375Q30.425037,26.348004859375,30.50693,26.293285859375Q30.588822,26.238567859375,30.679817,26.200876859375Q30.770811,26.163185859374998,30.86741,26.143970859375Q30.9640086,26.124755859375,31.0625,26.124755859375Q31.1609914,26.124755859375,31.25759,26.143970859375Q31.354189,26.163185859374998,31.445183,26.200876859375Q31.536178,26.238567859375,31.61807,26.293285859375Q31.699963,26.348004859375,31.769607,26.417648859375Q31.839251,26.487292859375,31.89397,26.569185859375Q31.948688,26.651077859375,31.986379,26.742072859375Q32.02407,26.833066859375,32.043285,26.929665859375Q32.0625,27.026264459375,32.0625,27.124755859375ZM32.0625,27.124755859375Q32.0625,27.223247259375,32.043285,27.319845859375Q32.02407,27.416444859375,31.986379,27.507438859375Q31.948688,27.598433859375,31.89397,27.680325859375Q31.839251,27.762218859375,31.769607,27.831862859375Q31.699963,27.901506859375,31.61807,27.956225859375Q31.536178,28.010943859375,31.445183,28.048634859375Q31.354189,28.086325859375002,31.25759,28.105540859375Q31.1609914,28.124755859375,31.0625,28.124755859375Q30.9640086,28.124755859375,30.86741,28.105540859375Q30.770811,28.086325859375002,30.679817,28.048634859375Q30.588822,28.010943859375,30.50693,27.956225859375Q30.425037,27.901506859375,30.355393,27.831862859375Q30.285749,27.762218859375,30.23103,27.680325859375Q30.176312,27.598433859375,30.138621,27.507438859375Q30.100929999999998,27.416444859375,30.081715,27.319845859375Q30.0625,27.223247259375,30.0625,27.124755859375Q30.0625,27.026264459375,30.081715,26.929665859375Q30.100929999999998,26.833066859375,30.138621,26.742072859375Q30.176312,26.651077859375,30.23103,26.569185859375Q30.285749,26.487292859375,30.355393,26.417648859375Q30.425037,26.348004859375,30.50693,26.293285859375Q30.588822,26.238567859375,30.679817,26.200876859375Q30.770811,26.163185859374998,30.86741,26.143970859375Q30.9640086,26.124755859375,31.0625,26.124755859375Q31.1609914,26.124755859375,31.25759,26.143970859375Q31.354189,26.163185859374998,31.445183,26.200876859375Q31.536178,26.238567859375,31.61807,26.293285859375Q31.699963,26.348004859375,31.769607,26.417648859375Q31.839251,26.487292859375,31.89397,26.569185859375Q31.948688,26.651077859375,31.986379,26.742072859375Q32.02407,26.833066859375,32.043285,26.929665859375Q32.0625,27.026264459375,32.0625,27.124755859375ZM32.0625,38.499755859375Q32.0625,38.598255859375,32.043285,38.694855859375Q32.02407,38.791455859375,31.986379,38.882455859375Q31.948688,38.973455859375,31.89397,39.055355859375Q31.839251,39.137255859375,31.769607,39.206855859375Q31.699963,39.276555859375,31.61807,39.331255859375Q31.536178,39.385955859375,31.445183,39.423655859375Q31.354189,39.461355859375004,31.25759,39.480555859375Q31.1609914,39.499755859375,31.0625,39.499755859375Q30.9640086,39.499755859375,30.86741,39.480555859375Q30.770811,39.461355859375004,30.679817,39.423655859375Q30.588822,39.385955859375,30.50693,39.331255859375Q30.425037,39.276555859375,30.355393,39.206855859375Q30.285749,39.137255859375,30.23103,39.055355859375Q30.176312,38.973455859375,30.138621,38.882455859375Q30.100929999999998,38.791455859375,30.081715,38.694855859375Q30.0625,38.598255859375,30.0625,38.499755859375Q30.0625,38.401255859375,30.081715,38.304655859375Q30.100929999999998,38.208055859375,30.138621,38.117055859375Q30.176312,38.026055859375,30.23103,37.944155859375Q30.285749,37.862255859375,30.355393,37.792655859375Q30.425037,37.722955859375,30.50693,37.668255859375Q30.588822,37.613555859375,30.679817,37.575855859375Q30.770811,37.538155859374996,30.86741,37.518955859375Q30.9640086,37.499755859375,31.0625,37.499755859375Q31.1609914,37.499755859375,31.25759,37.518955859375Q31.354189,37.538155859374996,31.445183,37.575855859375Q31.536178,37.613555859375,31.61807,37.668255859375Q31.699963,37.722955859375,31.769607,37.792655859375Q31.839251,37.862255859375,31.89397,37.944155859375Q31.948688,38.026055859375,31.986379,38.117055859375Q32.02407,38.208055859375,32.043285,38.304655859375Q32.0625,38.401255859375,32.0625,38.499755859375Z" fill="#333333" fill-opacity="1"/></g><g><path d="M34.29289,30.894365859375L32.98039,29.581865859375L30.35539,26.956862859375L31.0625,26.249755859375L31.76961,26.956862859375L29.14461,29.581865859375L27.832107,30.894365859375Q27.762463,30.964005859375,27.68057,31.018725859375Q27.598678,31.073445859375,27.507683,31.111135859375Q27.416689,31.148825859375002,27.32009,31.168045859375Q27.2234914,31.187255859375,27.125,31.187255859375Q27.0265086,31.187255859375,26.92991,31.168045859375Q26.833311,31.148825859375002,26.742317,31.111135859375Q26.651322,31.073445859375,26.56943,31.018725859375Q26.487537,30.964005859375,26.417893,30.894365859375Q26.348249,30.824715859375,26.29353,30.742825859375Q26.238812,30.660935859375,26.201121,30.569935859375Q26.163429999999998,30.478945859375,26.144215,30.382345859375Q26.125,30.285745859374998,26.125,30.187255859375Q26.125,30.088765859375002,26.144215,29.992165859375Q26.163429999999998,29.895565859375,26.201121,29.804575859375Q26.238812,29.713575859375,26.29353,29.631685859375Q26.348249,29.549795859375,26.417893,29.480145859375L27.730393,28.167655859375L30.35539,25.542649859375Q30.35539,25.542648859375,30.35539,25.542648859375Q30.42504,25.473004859375,30.50693,25.418285859375Q30.58882,25.363566859375,30.67982,25.325876859375Q30.77081,25.288185859374998,30.86741,25.268970859375Q30.964010000000002,25.249755859375,31.0625,25.249755859375Q31.160989999999998,25.249755859375,31.25759,25.268970859375Q31.35419,25.288185859374998,31.44518,25.325876859375Q31.53618,25.363567859375,31.61807,25.418286859375Q31.69996,25.473005859375,31.76961,25.542648859375L34.39461,28.167645859375L35.70711,29.480145859375Q35.77675,29.549795859375,35.831469999999996,29.631685859375Q35.88619,29.713575859375,35.92388,29.804575859375Q35.96157,29.895565859375,35.980779999999996,29.992165859375Q36,30.088765859375002,36,30.187255859375Q36,30.285745859374998,35.980779999999996,30.382345859375Q35.96157,30.478945859375,35.92388,30.569935859375Q35.88619,30.660935859375,35.831469999999996,30.742825859375Q35.77675,30.824715859375,35.70711,30.894365859375Q35.637460000000004,30.964005859375,35.55557,31.018725859375Q35.47368,31.073445859375,35.38268,31.111135859375Q35.29169,31.148825859375002,35.19509,31.168045859375Q35.09849,31.187255859375,35,31.187255859375Q34.90151,31.187255859375,34.80491,31.168045859375Q34.70831,31.148825859375002,34.61732,31.111135859375Q34.52632,31.073445859375,34.44443,31.018725859375Q34.36254,30.964005859375,34.29289,30.894365859375ZM36,30.187255859375Q36,30.285745859374998,35.980779999999996,30.382345859375Q35.96157,30.478945859375,35.92388,30.569935859375Q35.88619,30.660935859375,35.831469999999996,30.742825859375Q35.77675,30.824715859375,35.70711,30.894365859375Q35.637460000000004,30.964005859375,35.55557,31.018725859375Q35.47368,31.073445859375,35.38268,31.111135859375Q35.29169,31.148825859375002,35.19509,31.168045859375Q35.09849,31.187255859375,35,31.187255859375Q34.90151,31.187255859375,34.80491,31.168045859375Q34.70831,31.148825859375002,34.61732,31.111135859375Q34.52632,31.073445859375,34.44443,31.018725859375Q34.36254,30.964005859375,34.29289,30.894365859375Q34.22325,30.824715859375,34.16853,30.742825859375Q34.11381,30.660935859375,34.07612,30.569935859375Q34.03843,30.478945859375,34.01921,30.382345859375Q34,30.285745859374998,34,30.187255859375Q34,30.088765859375002,34.01921,29.992165859375Q34.03843,29.895565859375,34.07612,29.804575859375Q34.11381,29.713575859375,34.16853,29.631685859375Q34.22325,29.549795859375,34.29289,29.480145859375Q34.36254,29.410505859375,34.44443,29.355785859375Q34.52632,29.301065859375,34.61732,29.263375859375Q34.70831,29.225685859374998,34.80491,29.206475859375Q34.90151,29.187255859375,35,29.187255859375Q35.09849,29.187255859375,35.19509,29.206475859375Q35.29169,29.225685859374998,35.38268,29.263375859375Q35.47368,29.301065859375,35.55557,29.355785859375Q35.637460000000004,29.410505859375,35.70711,29.480145859375Q35.77675,29.549795859375,35.831469999999996,29.631685859375Q35.88619,29.713575859375,35.92388,29.804575859375Q35.96157,29.895565859375,35.980779999999996,29.992165859375Q36,30.088765859375002,36,30.187255859375ZM28.125,30.187255859375Q28.125,30.285745859374998,28.105785,30.382345859375Q28.086570000000002,30.478945859375,28.048879,30.569935859375Q28.011188,30.660935859375,27.95647,30.742825859375Q27.901751,30.824715859375,27.832107,30.894365859375Q27.762463,30.964005859375,27.68057,31.018725859375Q27.598678,31.073445859375,27.507683,31.111135859375Q27.416689,31.148825859375002,27.32009,31.168045859375Q27.2234914,31.187255859375,27.125,31.187255859375Q27.0265086,31.187255859375,26.92991,31.168045859375Q26.833311,31.148825859375002,26.742317,31.111135859375Q26.651322,31.073445859375,26.56943,31.018725859375Q26.487537,30.964005859375,26.417893,30.894365859375Q26.348249,30.824715859375,26.29353,30.742825859375Q26.238812,30.660935859375,26.201121,30.569935859375Q26.163429999999998,30.478945859375,26.144215,30.382345859375Q26.125,30.285745859374998,26.125,30.187255859375Q26.125,30.088765859375002,26.144215,29.992165859375Q26.163429999999998,29.895565859375,26.201121,29.804575859375Q26.238812,29.713575859375,26.29353,29.631685859375Q26.348249,29.549795859375,26.417893,29.480145859375Q26.487537,29.410505859375,26.56943,29.355785859375Q26.651322,29.301065859375,26.742317,29.263375859375Q26.833311,29.225685859374998,26.92991,29.206475859375Q27.0265086,29.187255859375,27.125,29.187255859375Q27.2234914,29.187255859375,27.32009,29.206475859375Q27.416689,29.225685859374998,27.507683,29.263375859375Q27.598678,29.301065859375,27.68057,29.355785859375Q27.762463,29.410505859375,27.832107,29.480145859375Q27.901751,29.549795859375,27.95647,29.631685859375Q28.011188,29.713575859375,28.048879,29.804575859375Q28.086570000000002,29.895565859375,28.105785,29.992165859375Q28.125,30.088765859375002,28.125,30.187255859375Z" fill="#333333" fill-opacity="1"/></g><g><path d="M28,14.999755859375L14,14.999755859375Q13.9015086,14.999755859375,13.80491,14.980540859375001Q13.708311,14.961325859375,13.617317,14.923634859375Q13.526322,14.885943859375,13.44443,14.831225859375Q13.362537,14.776506859375,13.292893,14.706862859375Q13.223249,14.637218859375,13.16853,14.555325859375Q13.113812,14.473433859375,13.076121,14.382438859375Q13.03843,14.291444859375,13.019214999999999,14.194845859375Q13,14.098247259375,13,13.999755859375Q13,13.901264459375,13.019214999999999,13.804665859375Q13.03843,13.708066859375,13.076121,13.617072859375Q13.113812,13.526077859375,13.16853,13.444185859375Q13.223249,13.362292859375,13.292893,13.292648859375Q13.362537,13.223004859375,13.44443,13.168285859375Q13.526322,13.113567859375,13.617317,13.075876859375Q13.708311,13.038185859375,13.80491,13.018970859374999Q13.9015086,12.999755859375,14,12.999755859375L28,12.999755859375Q28.0985,12.999755859375,28.1951,13.018970859374999Q28.2917,13.038185859375,28.3827,13.075876859375Q28.4737,13.113567859375,28.5556,13.168285859375Q28.6375,13.223004859375,28.7071,13.292648859375Q28.776699999999998,13.362292859375,28.8315,13.444185859375Q28.886200000000002,13.526077859375,28.9239,13.617072859375Q28.9616,13.708066859375,28.980800000000002,13.804665859375Q29,13.901264459375,29,13.999755859375Q29,14.098247259375,28.980800000000002,14.194845859375Q28.9616,14.291444859375,28.9239,14.382438859375Q28.886200000000002,14.473433859375,28.8315,14.555325859375Q28.776699999999998,14.637218859375,28.7071,14.706862859375Q28.6375,14.776506859375,28.5556,14.831225859375Q28.4737,14.885943859375,28.3827,14.923634859375Q28.2917,14.961325859375,28.1951,14.980540859375001Q28.0985,14.999755859375,28,14.999755859375ZM29,13.999755859375Q29,14.098247259375,28.980800000000002,14.194845859375Q28.9616,14.291444859375,28.9239,14.382438859375Q28.886200000000002,14.473433859375,28.8315,14.555325859375Q28.776699999999998,14.637218859375,28.7071,14.706862859375Q28.6375,14.776506859375,28.5556,14.831225859375Q28.4737,14.885943859375,28.3827,14.923634859375Q28.2917,14.961325859375,28.1951,14.980540859375001Q28.0985,14.999755859375,28,14.999755859375Q27.9015,14.999755859375,27.8049,14.980540859375001Q27.7083,14.961325859375,27.6173,14.923634859375Q27.5263,14.885943859375,27.4444,14.831225859375Q27.3625,14.776506859375,27.2929,14.706862859375Q27.2232,14.637218859375,27.1685,14.555325859375Q27.113799999999998,14.473433859375,27.0761,14.382438859375Q27.0384,14.291444859375,27.019199999999998,14.194845859375Q27,14.098247259375,27,13.999755859375Q27,13.901264459375,27.019199999999998,13.804665859375Q27.0384,13.708066859375,27.0761,13.617072859375Q27.113799999999998,13.526077859375,27.1685,13.444185859375Q27.2232,13.362292859375,27.2929,13.292648859375Q27.3625,13.223004859375,27.4444,13.168285859375Q27.5263,13.113567859375,27.6173,13.075876859375Q27.7083,13.038185859375,27.8049,13.018970859374999Q27.9015,12.999755859375,28,12.999755859375Q28.0985,12.999755859375,28.1951,13.018970859374999Q28.2917,13.038185859375,28.3827,13.075876859375Q28.4737,13.113567859375,28.5556,13.168285859375Q28.6375,13.223004859375,28.7071,13.292648859375Q28.776699999999998,13.362292859375,28.8315,13.444185859375Q28.886200000000002,13.526077859375,28.9239,13.617072859375Q28.9616,13.708066859375,28.980800000000002,13.804665859375Q29,13.901264459375,29,13.999755859375ZM15,13.999755859375Q15,14.098247259375,14.980785000000001,14.194845859375Q14.96157,14.291444859375,14.923879,14.382438859375Q14.886188,14.473433859375,14.83147,14.555325859375Q14.776751,14.637218859375,14.707107,14.706862859375Q14.637463,14.776506859375,14.55557,14.831225859375Q14.473678,14.885943859375,14.382683,14.923634859375Q14.291689,14.961325859375,14.19509,14.980540859375001Q14.0984914,14.999755859375,14,14.999755859375Q13.9015086,14.999755859375,13.80491,14.980540859375001Q13.708311,14.961325859375,13.617317,14.923634859375Q13.526322,14.885943859375,13.44443,14.831225859375Q13.362537,14.776506859375,13.292893,14.706862859375Q13.223249,14.637218859375,13.16853,14.555325859375Q13.113812,14.473433859375,13.076121,14.382438859375Q13.03843,14.291444859375,13.019214999999999,14.194845859375Q13,14.098247259375,13,13.999755859375Q13,13.901264459375,13.019214999999999,13.804665859375Q13.03843,13.708066859375,13.076121,13.617072859375Q13.113812,13.526077859375,13.16853,13.444185859375Q13.223249,13.362292859375,13.292893,13.292648859375Q13.362537,13.223004859375,13.44443,13.168285859375Q13.526322,13.113567859375,13.617317,13.075876859375Q13.708311,13.038185859375,13.80491,13.018970859374999Q13.9015086,12.999755859375,14,12.999755859375Q14.0984914,12.999755859375,14.19509,13.018970859374999Q14.291689,13.038185859375,14.382683,13.075876859375Q14.473678,13.113567859375,14.55557,13.168285859375Q14.637463,13.223004859375,14.707107,13.292648859375Q14.776751,13.362292859375,14.83147,13.444185859375Q14.886188,13.526077859375,14.923879,13.617072859375Q14.96157,13.708066859375,14.980785000000001,13.804665859375Q15,13.901264459375,15,13.999755859375Z" fill="#333333" fill-opacity="1"/></g><g><path d="M21,21.999755859375L14,21.999755859375Q13.9015086,21.999755859375,13.80491,21.980540859375Q13.708311,21.961325859375002,13.617317,21.923634859375Q13.526322,21.885943859375,13.44443,21.831225859375Q13.362537,21.776506859375,13.292893,21.706862859375Q13.223249,21.637218859375,13.16853,21.555325859375Q13.113812,21.473433859375,13.076121,21.382438859375Q13.03843,21.291444859375,13.019214999999999,21.194845859375Q13,21.098247259375,13,20.999755859375Q13,20.901264459375,13.019214999999999,20.804665859375Q13.03843,20.708066859375,13.076121,20.617072859375Q13.113812,20.526077859375,13.16853,20.444185859375Q13.223249,20.362292859375,13.292893,20.292648859375Q13.362537,20.223004859375,13.44443,20.168285859375Q13.526322,20.113567859375,13.617317,20.075876859375Q13.708311,20.038185859374998,13.80491,20.018970859375Q13.9015086,19.999755859375,14,19.999755859375L21,19.999755859375Q21.098489999999998,19.999755859375,21.19509,20.018970859375Q21.29169,20.038185859374998,21.38268,20.075876859375Q21.47368,20.113567859375,21.55557,20.168285859375Q21.63746,20.223004859375,21.70711,20.292648859375Q21.77675,20.362292859375,21.83147,20.444185859375Q21.88619,20.526077859375,21.92388,20.617072859375Q21.961570000000002,20.708066859375,21.98078,20.804665859375Q22,20.901264459375,22,20.999755859375Q22,21.098247259375,21.98078,21.194845859375Q21.961570000000002,21.291444859375,21.92388,21.382438859375Q21.88619,21.473433859375,21.83147,21.555325859375Q21.77675,21.637218859375,21.70711,21.706862859375Q21.63746,21.776506859375,21.55557,21.831225859375Q21.47368,21.885943859375,21.38268,21.923634859375Q21.29169,21.961325859375002,21.19509,21.980540859375Q21.098489999999998,21.999755859375,21,21.999755859375ZM22,20.999755859375Q22,21.098247259375,21.98078,21.194845859375Q21.961570000000002,21.291444859375,21.92388,21.382438859375Q21.88619,21.473433859375,21.83147,21.555325859375Q21.77675,21.637218859375,21.70711,21.706862859375Q21.63746,21.776506859375,21.55557,21.831225859375Q21.47368,21.885943859375,21.38268,21.923634859375Q21.29169,21.961325859375002,21.19509,21.980540859375Q21.098489999999998,21.999755859375,21,21.999755859375Q20.901510000000002,21.999755859375,20.80491,21.980540859375Q20.70831,21.961325859375002,20.61732,21.923634859375Q20.52632,21.885943859375,20.44443,21.831225859375Q20.36254,21.776506859375,20.29289,21.706862859375Q20.22325,21.637218859375,20.16853,21.555325859375Q20.11381,21.473433859375,20.07612,21.382438859375Q20.038429999999998,21.291444859375,20.01921,21.194845859375Q20,21.098247259375,20,20.999755859375Q20,20.901264459375,20.01921,20.804665859375Q20.038429999999998,20.708066859375,20.07612,20.617072859375Q20.11381,20.526077859375,20.16853,20.444185859375Q20.22325,20.362292859375,20.29289,20.292648859375Q20.36254,20.223004859375,20.44443,20.168285859375Q20.52632,20.113567859375,20.61732,20.075876859375Q20.70831,20.038185859374998,20.80491,20.018970859375Q20.901510000000002,19.999755859375,21,19.999755859375Q21.098489999999998,19.999755859375,21.19509,20.018970859375Q21.29169,20.038185859374998,21.38268,20.075876859375Q21.47368,20.113567859375,21.55557,20.168285859375Q21.63746,20.223004859375,21.70711,20.292648859375Q21.77675,20.362292859375,21.83147,20.444185859375Q21.88619,20.526077859375,21.92388,20.617072859375Q21.961570000000002,20.708066859375,21.98078,20.804665859375Q22,20.901264459375,22,20.999755859375ZM15,20.999755859375Q15,21.098247259375,14.980785000000001,21.194845859375Q14.96157,21.291444859375,14.923879,21.382438859375Q14.886188,21.473433859375,14.83147,21.555325859375Q14.776751,21.637218859375,14.707107,21.706862859375Q14.637463,21.776506859375,14.55557,21.831225859375Q14.473678,21.885943859375,14.382683,21.923634859375Q14.291689,21.961325859375002,14.19509,21.980540859375Q14.0984914,21.999755859375,14,21.999755859375Q13.9015086,21.999755859375,13.80491,21.980540859375Q13.708311,21.961325859375002,13.617317,21.923634859375Q13.526322,21.885943859375,13.44443,21.831225859375Q13.362537,21.776506859375,13.292893,21.706862859375Q13.223249,21.637218859375,13.16853,21.555325859375Q13.113812,21.473433859375,13.076121,21.382438859375Q13.03843,21.291444859375,13.019214999999999,21.194845859375Q13,21.098247259375,13,20.999755859375Q13,20.901264459375,13.019214999999999,20.804665859375Q13.03843,20.708066859375,13.076121,20.617072859375Q13.113812,20.526077859375,13.16853,20.444185859375Q13.223249,20.362292859375,13.292893,20.292648859375Q13.362537,20.223004859375,13.44443,20.168285859375Q13.526322,20.113567859375,13.617317,20.075876859375Q13.708311,20.038185859374998,13.80491,20.018970859375Q13.9015086,19.999755859375,14,19.999755859375Q14.0984914,19.999755859375,14.19509,20.018970859375Q14.291689,20.038185859374998,14.382683,20.075876859375Q14.473678,20.113567859375,14.55557,20.168285859375Q14.637463,20.223004859375,14.707107,20.292648859375Q14.776751,20.362292859375,14.83147,20.444185859375Q14.886188,20.526077859375,14.923879,20.617072859375Q14.96157,20.708066859375,14.980785000000001,20.804665859375Q15,20.901264459375,15,20.999755859375Z" fill="#333333" fill-opacity="1"/></g></g></svg>