<svg xmlns="http://www.w3.org/2000/svg" xmlns:xlink="http://www.w3.org/1999/xlink" fill="none" version="1.1" width="42" height="42" viewBox="0 0 42 42"><defs><clipPath id="master_svg0_11_0004"><rect x="0" y="0" width="42" height="42" rx="0"/></clipPath></defs><g clip-path="url(#master_svg0_11_0004)"><g><path d="M27.5625,37.5L33.25,37.5Q33.56068,37.5,33.78034,37.28034Q34,37.06068,34,36.75L34,28.875Q34,28.7765086,34.01921,28.67991Q34.03843,28.583311,34.07612,28.492317Q34.11381,28.401322,34.16853,28.31943Q34.22325,28.237537,34.29289,28.167893Q34.36254,28.098249,34.44443,28.04353Q34.52632,27.988812,34.61732,27.951121Q34.70831,27.913429999999998,34.80491,27.894215Q34.90151,27.875,35,27.875Q35.09849,27.875,35.19509,27.894215Q35.29169,27.913429999999998,35.38268,27.951121Q35.47368,27.988812,35.55557,28.04353Q35.637460000000004,28.098249,35.70711,28.167893Q35.77675,28.237537,35.831469999999996,28.31943Q35.88619,28.401322,35.92388,28.492317Q35.96157,28.583311,35.980779999999996,28.67991Q36,28.7765086,36,28.875L36,36.75Q36,37.88911,35.19455,38.69455Q34.38911,39.5,33.25,39.5L27.5625,39.5Q27.4640086,39.5,27.36741,39.4808Q27.270811,39.461600000000004,27.179817,39.4239Q27.088822,39.3862,27.00693,39.3315Q26.925037,39.2768,26.855393,39.2071Q26.785749,39.1375,26.73103,39.0556Q26.676312,38.9737,26.638621,38.8827Q26.600929999999998,38.79169,26.581715,38.69509Q26.5625,38.59849,26.5625,38.5Q26.5625,38.40151,26.581715,38.30491Q26.600929999999998,38.20831,26.638621,38.11732Q26.676312,38.02632,26.73103,37.94443Q26.785749,37.862539999999996,26.855393,37.79289Q26.925037,37.72325,27.00693,37.668530000000004Q27.088822,37.61381,27.179817,37.57612Q27.270811,37.53843,27.36741,37.519220000000004Q27.4640086,37.5,27.5625,37.5ZM28.5625,38.5Q28.5625,38.59849,28.543285,38.69509Q28.524070000000002,38.79169,28.486379,38.8827Q28.448688,38.9737,28.39397,39.0556Q28.339251,39.1375,28.269607,39.2071Q28.199963,39.2768,28.11807,39.3315Q28.036178,39.3862,27.945183,39.4239Q27.854189,39.461600000000004,27.75759,39.4808Q27.6609914,39.5,27.5625,39.5Q27.4640086,39.5,27.36741,39.4808Q27.270811,39.461600000000004,27.179817,39.4239Q27.088822,39.3862,27.00693,39.3315Q26.925037,39.2768,26.855393,39.2071Q26.785749,39.1375,26.73103,39.0556Q26.676312,38.9737,26.638621,38.8827Q26.600929999999998,38.79169,26.581715,38.69509Q26.5625,38.59849,26.5625,38.5Q26.5625,38.40151,26.581715,38.30491Q26.600929999999998,38.20831,26.638621,38.11732Q26.676312,38.02632,26.73103,37.94443Q26.785749,37.862539999999996,26.855393,37.79289Q26.925037,37.72325,27.00693,37.668530000000004Q27.088822,37.61381,27.179817,37.57612Q27.270811,37.53843,27.36741,37.519220000000004Q27.4640086,37.5,27.5625,37.5Q27.6609914,37.5,27.75759,37.51921Q27.854189,37.53843,27.945183,37.57612Q28.036178,37.61381,28.11807,37.668530000000004Q28.199963,37.72325,28.269607,37.79289Q28.339251,37.862539999999996,28.39397,37.94443Q28.448688,38.02632,28.486379,38.11732Q28.524070000000002,38.20831,28.543285,38.30491Q28.5625,38.40151,28.5625,38.5ZM36,28.875Q36,28.9734914,35.980779999999996,29.07009Q35.96157,29.166689,35.92388,29.257683Q35.88619,29.348678,35.831469999999996,29.43057Q35.77675,29.512463,35.70711,29.582107Q35.637460000000004,29.651751,35.55557,29.70647Q35.47368,29.761188,35.38268,29.798879Q35.29169,29.836570000000002,35.19509,29.855785Q35.09849,29.875,35,29.875Q34.90151,29.875,34.80491,29.855785Q34.70831,29.836570000000002,34.61732,29.798879Q34.52632,29.761188,34.44443,29.70647Q34.36254,29.651751,34.29289,29.582107Q34.22325,29.512463,34.16853,29.43057Q34.11381,29.348678,34.07612,29.257683Q34.03843,29.166689,34.01921,29.07009Q34,28.9734914,34,28.875Q34,28.7765086,34.01921,28.67991Q34.03843,28.583311,34.07612,28.492317Q34.11381,28.401322,34.16853,28.31943Q34.22325,28.237537,34.29289,28.167893Q34.36254,28.098249,34.44443,28.04353Q34.52632,27.988812,34.61732,27.951121Q34.70831,27.913429999999998,34.80491,27.894215Q34.90151,27.875,35,27.875Q35.09849,27.875,35.19509,27.894215Q35.29169,27.913429999999998,35.38268,27.951121Q35.47368,27.988812,35.55557,28.04353Q35.637460000000004,28.098249,35.70711,28.167893Q35.77675,28.237537,35.831469999999996,28.31943Q35.88619,28.401322,35.92388,28.492317Q35.96157,28.583311,35.980779999999996,28.67991Q36,28.7765086,36,28.875Z" fill="#333333" fill-opacity="1"/></g><g><path d="M14,39.5L8.75,39.5Q7.610909,39.5,6.805459,38.6946Q6,37.8891,6,36.75L6,5.25Q6,4.110912,6.805456,3.305456Q7.610912,2.5,8.75,2.5L33.25,2.5Q34.3891,2.5,35.1946,3.30546Q36,4.110911,36,5.25L36,14Q36,14.0985,35.9808,14.1951Q35.961600000000004,14.2917,35.9239,14.3827Q35.8862,14.4737,35.8315,14.5556Q35.7768,14.6375,35.7071,14.7071Q35.6375,14.7768,35.5556,14.8315Q35.4737,14.8862,35.3827,14.9239Q35.2917,14.9616,35.1951,14.9808Q35.0985,15,35,15Q34.9015,15,34.8049,14.9808Q34.7083,14.9616,34.6173,14.9239Q34.5263,14.8862,34.4444,14.8315Q34.3625,14.7768,34.2929,14.7071Q34.2232,14.6375,34.1685,14.5556Q34.1138,14.4737,34.0761,14.3827Q34.038399999999996,14.2917,34.0192,14.1951Q34,14.0985,34,14L34,5.25Q34,4.93933,33.7803,4.71967Q33.5607,4.5,33.25,4.5L8.75,4.5Q8.43934,4.5,8.21967,4.71967Q8,4.93934,8,5.25L8,36.75Q8,37.0607,8.21967,37.2803Q8.43933,37.5,8.75,37.5L14,37.5Q14.09849,37.5,14.19509,37.5192Q14.29169,37.5384,14.38268,37.5761Q14.47368,37.6138,14.55557,37.6685Q14.63746,37.7232,14.70711,37.7929Q14.77675,37.8625,14.83147,37.9444Q14.88619,38.0263,14.92388,38.1173Q14.96157,38.2083,14.98078,38.3049Q15,38.4015,15,38.5Q15,38.5985,14.98078,38.6951Q14.96157,38.7917,14.92388,38.8827Q14.88619,38.9737,14.83147,39.0556Q14.77675,39.1375,14.70711,39.2071Q14.63746,39.2767,14.55557,39.3315Q14.47368,39.3862,14.38268,39.4239Q14.29169,39.4616,14.19509,39.4808Q14.09849,39.5,14,39.5ZM15,38.5Q15,38.5985,14.98078,38.6951Q14.96157,38.7917,14.92388,38.8827Q14.88619,38.9737,14.83147,39.0556Q14.77675,39.1375,14.70711,39.2071Q14.63746,39.2767,14.55557,39.3315Q14.47368,39.3862,14.38268,39.4239Q14.29169,39.4616,14.19509,39.4808Q14.09849,39.5,14,39.5Q13.90151,39.5,13.80491,39.4808Q13.70831,39.4616,13.61732,39.4239Q13.52632,39.3862,13.44443,39.3315Q13.36254,39.2767,13.29289,39.2071Q13.22325,39.1375,13.16853,39.0556Q13.11381,38.9737,13.07612,38.8827Q13.03843,38.7917,13.019210000000001,38.6951Q13,38.5985,13,38.5Q13,38.4015,13.019210000000001,38.3049Q13.03843,38.2083,13.07612,38.1173Q13.11381,38.0263,13.16853,37.9444Q13.22325,37.8625,13.29289,37.7929Q13.36254,37.7232,13.44443,37.6685Q13.52632,37.6138,13.61732,37.5761Q13.70831,37.5384,13.80491,37.5192Q13.90151,37.5,14,37.5Q14.09849,37.5,14.19509,37.5192Q14.29169,37.5384,14.38268,37.5761Q14.47368,37.6138,14.55557,37.6685Q14.63746,37.7232,14.70711,37.7929Q14.77675,37.8625,14.83147,37.9444Q14.88619,38.0263,14.92388,38.1173Q14.96157,38.2083,14.98078,38.3049Q15,38.4015,15,38.5ZM36,14Q36,14.0985,35.9808,14.1951Q35.961600000000004,14.2917,35.9239,14.3827Q35.8862,14.4737,35.8315,14.5556Q35.7768,14.6375,35.7071,14.7071Q35.6375,14.7768,35.5556,14.8315Q35.4737,14.8862,35.3827,14.9239Q35.2917,14.9616,35.1951,14.9808Q35.0985,15,35,15Q34.9015,15,34.8049,14.9808Q34.7083,14.9616,34.6173,14.9239Q34.5263,14.8862,34.4444,14.8315Q34.3625,14.7768,34.2929,14.7071Q34.2232,14.6375,34.1685,14.5556Q34.1138,14.4737,34.0761,14.3827Q34.038399999999996,14.2917,34.0192,14.1951Q34,14.0985,34,14Q34,13.9015,34.0192,13.8049Q34.038399999999996,13.7083,34.0761,13.6173Q34.1138,13.5263,34.1685,13.44443Q34.2232,13.36254,34.2929,13.29289Q34.3625,13.22325,34.4444,13.16853Q34.5263,13.11381,34.6173,13.07612Q34.7083,13.03843,34.8049,13.01922Q34.9015,13,35,13Q35.0985,13,35.1951,13.01922Q35.2917,13.03843,35.3827,13.07612Q35.4737,13.11381,35.5556,13.16853Q35.6375,13.22325,35.7071,13.29289Q35.7768,13.36254,35.8315,13.44443Q35.8862,13.5263,35.9239,13.6173Q35.961600000000004,13.7083,35.9808,13.8049Q36,13.9015,36,14Z" fill="#333333" fill-opacity="1"/></g><g><path d="M26.25,15L14,15Q13.9015086,15,13.80491,14.980785000000001Q13.708311,14.96157,13.617317,14.923879Q13.526322,14.886188,13.44443,14.83147Q13.362537,14.776751,13.292893,14.707107Q13.223249,14.637463,13.16853,14.55557Q13.113812,14.473678,13.076121,14.382683Q13.03843,14.291689,13.019214999999999,14.19509Q13,14.0984914,13,14Q13,13.9015086,13.019214999999999,13.80491Q13.03843,13.708311,13.076121,13.617317Q13.113812,13.526322,13.16853,13.44443Q13.223249,13.362537,13.292893,13.292893Q13.362537,13.223249,13.44443,13.16853Q13.526322,13.113812,13.617317,13.076121Q13.708311,13.03843,13.80491,13.019214999999999Q13.9015086,13,14,13L26.25,13Q26.3485,13,26.4451,13.019214999999999Q26.5417,13.03843,26.6327,13.076121Q26.7237,13.113812,26.8056,13.16853Q26.8875,13.223249,26.9571,13.292893Q27.0268,13.362537,27.0815,13.44443Q27.136200000000002,13.526322,27.1739,13.617317Q27.2116,13.708311,27.230800000000002,13.80491Q27.25,13.9015086,27.25,14Q27.25,14.0984914,27.230800000000002,14.19509Q27.2116,14.291689,27.1739,14.382683Q27.136200000000002,14.473678,27.0815,14.55557Q27.0268,14.637463,26.9571,14.707107Q26.8875,14.776751,26.8056,14.83147Q26.7237,14.886188,26.6327,14.923879Q26.5417,14.96157,26.4451,14.980785000000001Q26.3485,15,26.25,15ZM27.25,14Q27.25,14.0984914,27.230800000000002,14.19509Q27.2116,14.291689,27.1739,14.382683Q27.136200000000002,14.473678,27.0815,14.55557Q27.0268,14.637463,26.9571,14.707107Q26.8875,14.776751,26.8056,14.83147Q26.7237,14.886188,26.6327,14.923879Q26.5417,14.96157,26.4451,14.980785000000001Q26.3485,15,26.25,15Q26.1515,15,26.0549,14.980785000000001Q25.9583,14.96157,25.8673,14.923879Q25.7763,14.886188,25.6944,14.83147Q25.6125,14.776751,25.5429,14.707107Q25.4732,14.637463,25.4185,14.55557Q25.363799999999998,14.473678,25.3261,14.382683Q25.2884,14.291689,25.269199999999998,14.19509Q25.25,14.0984914,25.25,14Q25.25,13.9015086,25.269199999999998,13.80491Q25.2884,13.708311,25.3261,13.617317Q25.363799999999998,13.526322,25.4185,13.44443Q25.4732,13.362537,25.5429,13.292893Q25.6125,13.223249,25.6944,13.16853Q25.7763,13.113812,25.8673,13.076121Q25.9583,13.03843,26.0549,13.019214999999999Q26.1515,13,26.25,13Q26.3485,13,26.4451,13.019214999999999Q26.5417,13.03843,26.6327,13.076121Q26.7237,13.113812,26.8056,13.16853Q26.8875,13.223249,26.9571,13.292893Q27.0268,13.362537,27.0815,13.44443Q27.136200000000002,13.526322,27.1739,13.617317Q27.2116,13.708311,27.230800000000002,13.80491Q27.25,13.9015086,27.25,14ZM15,14Q15,14.0984914,14.980785000000001,14.19509Q14.96157,14.291689,14.923879,14.382683Q14.886188,14.473678,14.83147,14.55557Q14.776751,14.637463,14.707107,14.707107Q14.637463,14.776751,14.55557,14.83147Q14.473678,14.886188,14.382683,14.923879Q14.291689,14.96157,14.19509,14.980785000000001Q14.0984914,15,14,15Q13.9015086,15,13.80491,14.980785000000001Q13.708311,14.96157,13.617317,14.923879Q13.526322,14.886188,13.44443,14.83147Q13.362537,14.776751,13.292893,14.707107Q13.223249,14.637463,13.16853,14.55557Q13.113812,14.473678,13.076121,14.382683Q13.03843,14.291689,13.019214999999999,14.19509Q13,14.0984914,13,14Q13,13.9015086,13.019214999999999,13.80491Q13.03843,13.708311,13.076121,13.617317Q13.113812,13.526322,13.16853,13.44443Q13.223249,13.362537,13.292893,13.292893Q13.362537,13.223249,13.44443,13.16853Q13.526322,13.113812,13.617317,13.076121Q13.708311,13.03843,13.80491,13.019214999999999Q13.9015086,13,14,13Q14.0984914,13,14.19509,13.019214999999999Q14.291689,13.03843,14.382683,13.076121Q14.473678,13.113812,14.55557,13.16853Q14.637463,13.223249,14.707107,13.292893Q14.776751,13.362537,14.83147,13.44443Q14.886188,13.526322,14.923879,13.617317Q14.96157,13.708311,14.980785000000001,13.80491Q15,13.9015086,15,14Z" fill="#333333" fill-opacity="1"/></g><g><path d="M35.7772,20.75413696484375L20.902245,39.12913896484375Q20.840274,39.20563896484375,20.76456,39.268638964843745Q20.688845,39.33163896484375,20.602297,39.378638964843745Q20.515748,39.42563896484375,20.421692,39.45493896484375Q20.327635,39.48413896484375,20.229685,39.49443896484375Q20.13173453,39.50473896484375,20.0336549,39.49573896484375Q19.935575,39.48673896484375,19.841135,39.45883896484375Q19.746695,39.43083896484375,19.659525,39.38503896484375Q19.572354,39.339138964843755,19.495802,39.27713896484375Q19.41925,39.21523896484375,19.356259,39.13953896484375Q19.293268,39.06373896484375,19.246258,38.97723896484375Q19.199248,38.890638964843745,19.170027,38.79663896484375Q19.140805,38.702538964843754,19.130495,38.60463896484375Q19.12018,38.506638964843745,19.129181,38.408638964843746Q19.138178,38.31053896484375,19.166136,38.21603896484375Q19.194094,38.121638964843754,19.239939,38.03443896484375Q19.285785,37.94733896484375,19.347755,37.87073896484375L34.2228,19.49574096484375Q34.2847,19.41918896484375,34.3604,19.35619796484375Q34.4362,19.29320696484375,34.5227,19.24619696484375Q34.6093,19.19918696484375,34.7033,19.16996596484375Q34.797399999999996,19.14074396484375,34.8953,19.13043396484375Q34.9933,19.12011896484375,35.091300000000004,19.12911996484375Q35.1894,19.13811696484375,35.2839,19.16607496484375Q35.378299999999996,19.19403296484375,35.4655,19.23987796484375Q35.5526,19.28572396484375,35.6292,19.34769396484375Q35.705799999999996,19.40966496484375,35.7687,19.48537896484375Q35.8317,19.56109396484375,35.8787,19.64764196484375Q35.9257,19.73419096484375,35.955,19.82824696484375Q35.9842,19.92230396484375,35.9945,20.02025396484375Q36.0048,20.11820443484375,35.9958,20.21628406484375Q35.9868,20.31436396484375,35.9589,20.40880396484375Q35.9309,20.50324396484375,35.8851,20.59041396484375Q35.8392,20.67758496484375,35.7772,20.75413696484375ZM36,20.12493896484375Q36,20.22343036484375,35.9808,20.32002896484375Q35.961600000000004,20.41662796484375,35.9239,20.50762196484375Q35.8862,20.59861696484375,35.8315,20.68050896484375Q35.7768,20.76240196484375,35.7071,20.83204596484375Q35.6375,20.90168996484375,35.5556,20.95640896484375Q35.4737,21.01112696484375,35.3827,21.04881796484375Q35.2917,21.086508964843752,35.1951,21.10572396484375Q35.0985,21.12493896484375,35,21.12493896484375Q34.9015,21.12493896484375,34.8049,21.10572396484375Q34.7083,21.086508964843752,34.6173,21.04881796484375Q34.5263,21.01112696484375,34.4444,20.95640896484375Q34.3625,20.90168996484375,34.2929,20.83204596484375Q34.2232,20.76240196484375,34.1685,20.68050896484375Q34.1138,20.59861696484375,34.0761,20.50762196484375Q34.038399999999996,20.41662796484375,34.0192,20.32002896484375Q34,20.22343036484375,34,20.12493896484375Q34,20.02644756484375,34.0192,19.92984896484375Q34.038399999999996,19.83324996484375,34.0761,19.74225596484375Q34.1138,19.65126096484375,34.1685,19.56936896484375Q34.2232,19.48747596484375,34.2929,19.41783196484375Q34.3625,19.34818796484375,34.4444,19.29346896484375Q34.5263,19.23875096484375,34.6173,19.20105996484375Q34.7083,19.163368964843748,34.8049,19.14415396484375Q34.9015,19.12493896484375,35,19.12493896484375Q35.0985,19.12493896484375,35.1951,19.14415396484375Q35.2917,19.163368964843748,35.3827,19.20105996484375Q35.4737,19.23875096484375,35.5556,19.29346896484375Q35.6375,19.34818796484375,35.7071,19.41783196484375Q35.7768,19.48747596484375,35.8315,19.56936896484375Q35.8862,19.65126096484375,35.9239,19.74225596484375Q35.961600000000004,19.83324996484375,35.9808,19.92984896484375Q36,20.02644756484375,36,20.12493896484375ZM21.125,38.49993896484375Q21.125,38.59843896484375,21.105785,38.69503896484375Q21.086570000000002,38.79163896484375,21.048879,38.88263896484375Q21.011188,38.97363896484375,20.95647,39.05553896484375Q20.901751,39.13743896484375,20.832107,39.20703896484375Q20.762463,39.276638964843755,20.68057,39.33143896484375Q20.598678,39.38613896484375,20.507683,39.42383896484375Q20.416689,39.461538964843754,20.32009,39.48073896484375Q20.2234914,39.49993896484375,20.125,39.49993896484375Q20.0265086,39.49993896484375,19.92991,39.48073896484375Q19.833311,39.461538964843754,19.742317,39.42383896484375Q19.651322,39.38613896484375,19.56943,39.33143896484375Q19.487537,39.276638964843755,19.417893,39.20703896484375Q19.348249,39.13743896484375,19.29353,39.05553896484375Q19.238812,38.97363896484375,19.201121,38.88263896484375Q19.163429999999998,38.79163896484375,19.144215,38.69503896484375Q19.125,38.59843896484375,19.125,38.49993896484375Q19.125,38.40143896484375,19.144215,38.30483896484375Q19.163429999999998,38.20823896484375,19.201121,38.11723896484375Q19.238812,38.02623896484375,19.29353,37.94433896484375Q19.348249,37.86243896484375,19.417893,37.79283896484375Q19.487537,37.72313896484375,19.56943,37.66843896484375Q19.651322,37.61373896484375,19.742317,37.57603896484375Q19.833311,37.538338964843746,19.92991,37.51913896484375Q20.0265086,37.49993896484375,20.125,37.49993896484375Q20.2234914,37.49993896484375,20.32009,37.51913896484375Q20.416689,37.538338964843746,20.507683,37.57603896484375Q20.598678,37.61373896484375,20.68057,37.66843896484375Q20.762463,37.72313896484375,20.832107,37.79283896484375Q20.901751,37.86243896484375,20.95647,37.94433896484375Q21.011188,38.02623896484375,21.048879,38.11723896484375Q21.086570000000002,38.20823896484375,21.105785,38.30483896484375Q21.125,38.40143896484375,21.125,38.49993896484375Z" fill="#333333" fill-opacity="1"/></g><g><path d="M21,22L14,22Q13.9015086,22,13.80491,21.980785Q13.708311,21.961570000000002,13.617317,21.923879Q13.526322,21.886188,13.44443,21.83147Q13.362537,21.776751,13.292893,21.707107Q13.223249,21.637463,13.16853,21.55557Q13.113812,21.473678,13.076121,21.382683Q13.03843,21.291689,13.019214999999999,21.19509Q13,21.0984914,13,21Q13,20.9015086,13.019214999999999,20.80491Q13.03843,20.708311,13.076121,20.617317Q13.113812,20.526322,13.16853,20.44443Q13.223249,20.362537,13.292893,20.292893Q13.362537,20.223249,13.44443,20.16853Q13.526322,20.113812,13.617317,20.076121Q13.708311,20.038429999999998,13.80491,20.019215Q13.9015086,20,14,20L21,20Q21.098489999999998,20,21.19509,20.019215Q21.29169,20.038429999999998,21.38268,20.076121Q21.47368,20.113812,21.55557,20.16853Q21.63746,20.223249,21.70711,20.292893Q21.77675,20.362537,21.83147,20.44443Q21.88619,20.526322,21.92388,20.617317Q21.961570000000002,20.708311,21.98078,20.80491Q22,20.9015086,22,21Q22,21.0984914,21.98078,21.19509Q21.961570000000002,21.291689,21.92388,21.382683Q21.88619,21.473678,21.83147,21.55557Q21.77675,21.637463,21.70711,21.707107Q21.63746,21.776751,21.55557,21.83147Q21.47368,21.886188,21.38268,21.923879Q21.29169,21.961570000000002,21.19509,21.980785Q21.098489999999998,22,21,22ZM22,21Q22,21.0984914,21.98078,21.19509Q21.961570000000002,21.291689,21.92388,21.382683Q21.88619,21.473678,21.83147,21.55557Q21.77675,21.637463,21.70711,21.707107Q21.63746,21.776751,21.55557,21.83147Q21.47368,21.886188,21.38268,21.923879Q21.29169,21.961570000000002,21.19509,21.980785Q21.098489999999998,22,21,22Q20.901510000000002,22,20.80491,21.980785Q20.70831,21.961570000000002,20.61732,21.923879Q20.52632,21.886188,20.44443,21.83147Q20.36254,21.776751,20.29289,21.707107Q20.22325,21.637463,20.16853,21.55557Q20.11381,21.473678,20.07612,21.382683Q20.038429999999998,21.291689,20.01921,21.19509Q20,21.0984914,20,21Q20,20.9015086,20.01921,20.80491Q20.038429999999998,20.708311,20.07612,20.617317Q20.11381,20.526322,20.16853,20.44443Q20.22325,20.362537,20.29289,20.292893Q20.36254,20.223249,20.44443,20.16853Q20.52632,20.113812,20.61732,20.076121Q20.70831,20.038429999999998,20.80491,20.019215Q20.901510000000002,20,21,20Q21.098489999999998,20,21.19509,20.019215Q21.29169,20.038429999999998,21.38268,20.076121Q21.47368,20.113812,21.55557,20.16853Q21.63746,20.223249,21.70711,20.292893Q21.77675,20.362537,21.83147,20.44443Q21.88619,20.526322,21.92388,20.617317Q21.961570000000002,20.708311,21.98078,20.80491Q22,20.9015086,22,21ZM15,21Q15,21.0984914,14.980785000000001,21.19509Q14.96157,21.291689,14.923879,21.382683Q14.886188,21.473678,14.83147,21.55557Q14.776751,21.637463,14.707107,21.707107Q14.637463,21.776751,14.55557,21.83147Q14.473678,21.886188,14.382683,21.923879Q14.291689,21.961570000000002,14.19509,21.980785Q14.0984914,22,14,22Q13.9015086,22,13.80491,21.980785Q13.708311,21.961570000000002,13.617317,21.923879Q13.526322,21.886188,13.44443,21.83147Q13.362537,21.776751,13.292893,21.707107Q13.223249,21.637463,13.16853,21.55557Q13.113812,21.473678,13.076121,21.382683Q13.03843,21.291689,13.019214999999999,21.19509Q13,21.0984914,13,21Q13,20.9015086,13.019214999999999,20.80491Q13.03843,20.708311,13.076121,20.617317Q13.113812,20.526322,13.16853,20.44443Q13.223249,20.362537,13.292893,20.292893Q13.362537,20.223249,13.44443,20.16853Q13.526322,20.113812,13.617317,20.076121Q13.708311,20.038429999999998,13.80491,20.019215Q13.9015086,20,14,20Q14.0984914,20,14.19509,20.019215Q14.291689,20.038429999999998,14.382683,20.076121Q14.473678,20.113812,14.55557,20.16853Q14.637463,20.223249,14.707107,20.292893Q14.776751,20.362537,14.83147,20.44443Q14.886188,20.526322,14.923879,20.617317Q14.96157,20.708311,14.980785000000001,20.80491Q15,20.9015086,15,21Z" fill="#333333" fill-opacity="1"/></g></g></svg>