<svg xmlns="http://www.w3.org/2000/svg" xmlns:xlink="http://www.w3.org/1999/xlink" fill="none" version="1.1" width="36" height="36" viewBox="0 0 36 36"><defs><clipPath id="master_svg0_44_0310"><rect x="0" y="0" width="36" height="36" rx="0"/></clipPath></defs><g clip-path="url(#master_svg0_44_0310)"><g><path d="M18,33C26.2845,33,33,26.2845,33,18C33,9.7155,26.2845,3,18,3C9.7155,3,3,9.7155,3,18C3,26.2845,9.7155,33,18,33ZM18,36C8.0595,36,0,27.9405,0,18C0,8.0595,8.0595,0,18,0C27.9405,0,36,8.0595,36,18C36,27.9405,27.9405,36,18,36Z" fill="#FFFFFF" fill-opacity="1"/></g><g><path d="M18.3149560546875,8.15999984741211C16.1249560546875,8.15999984741211,14.3849560546875,8.78999984741211,13.1249560546875,10.07999984741211C11.8349560546875,11.339999847412109,11.2049560546875,13.04999984741211,11.2049560546875,15.23999984741211L14.3849560546875,15.23999984741211C14.3849560546875,13.91999984741211,14.6549560546875,12.86999984741211,15.1949560546875,12.14999984741211C15.7949560546875,11.30999984741211,16.7849560546875,10.88999984741211,18.1349560546875,10.88999984741211C19.214956054687498,10.88999984741211,20.0549560546875,11.189999847412109,20.6549560546875,11.789999847412108C21.2249560546875,12.38999984741211,21.5249560546875,13.199999847412109,21.5249560546875,14.24999984741211C21.5249560546875,15.02999984741211,21.2549560546875,15.74999984741211,20.714956054687498,16.43999984741211L20.2049560546875,17.00999984741211C18.3449560546875,18.65999984741211,17.2049560546875,19.88999984741211,16.7849560546875,20.72999984741211C16.3949560546875,21.50999984741211,16.214956054687498,22.46999984741211,16.214956054687498,23.57999984741211L16.214956054687498,24.08999984741211L19.4249560546875,24.08999984741211L19.4249560546875,23.57999984741211C19.4249560546875,22.82999984741211,19.574956054687497,22.169999847412107,19.9049560546875,21.56999984741211C20.1749560546875,21.029999847412107,20.5949560546875,20.51999984741211,21.1349560546875,20.039999847412112C22.574956054687497,18.809999847412108,23.4149560546875,18.029999847412107,23.6849560546875,17.69999984741211C24.4049560546875,16.739999847412108,24.7949560546875,15.509999847412109,24.7949560546875,14.039999847412108C24.7949560546875,12.23999984741211,24.194956054687502,10.79999984741211,23.0249560546875,9.74999984741211C21.824956054687497,8.66999984741211,20.264956054687502,8.15999984741211,18.3149560546875,8.15999984741211ZM17.8049560546875,25.70999984741211C17.1749560546875,25.70999984741211,16.6649560546875,25.88999984741211,16.2749560546875,26.309999847412108C15.824956054687501,26.69999984741211,15.6149560546875,27.20999984741211,15.6149560546875,27.83999984741211C15.6149560546875,28.43999984741211,15.824956054687501,28.94999984741211,16.2749560546875,29.36999984741211C16.6649560546875,29.78999984741211,17.1749560546875,29.99999984741211,17.8049560546875,29.99999984741211C18.4049560546875,29.99999984741211,18.944956054687502,29.78999984741211,19.394956054687498,29.399999847412108C19.8149560546875,28.97999984741211,20.0249560546875,28.469999847412108,20.0249560546875,27.83999984741211C20.0249560546875,27.20999984741211,19.8149560546875,26.69999984741211,19.394956054687498,26.309999847412108C18.9749560546875,25.88999984741211,18.4349560546875,25.70999984741211,17.8049560546875,25.70999984741211Z" fill="#FFFFFF" fill-opacity="1"/></g></g></svg>