<svg xmlns="http://www.w3.org/2000/svg" xmlns:xlink="http://www.w3.org/1999/xlink" fill="none" version="1.1" width="36" height="36" viewBox="0 0 36 36"><defs><clipPath id="master_svg0_11_0026"><rect x="0" y="0" width="36" height="36" rx="0"/></clipPath></defs><g clip-path="url(#master_svg0_11_0026)"><g><rect x="0" y="0" width="36" height="36" rx="0" fill="#FFFFFF" fill-opacity="0.009999999776482582"/></g><g><path d="M5.75,7.5L5.75,33Q5.75,33.0985,5.769215,33.1951Q5.78843,33.2917,5.826121,33.3827Q5.863812,33.4737,5.91853,33.5556Q5.973249,33.6375,6.042893,33.7071Q6.112537,33.776700000000005,6.19443,33.8315Q6.276322,33.8862,6.367317,33.9239Q6.458311,33.961600000000004,6.55491,33.9808Q6.6515086,34,6.75,34L29.25,34Q29.3485,34,29.4451,33.9808Q29.5417,33.961600000000004,29.6327,33.9239Q29.7237,33.8862,29.8056,33.8315Q29.8875,33.776700000000005,29.9571,33.7071Q30.0267,33.6375,30.0815,33.5556Q30.1362,33.4737,30.1739,33.3827Q30.2116,33.2917,30.2308,33.1951Q30.25,33.0985,30.25,33L30.25,7.5Q30.25,7.4015086,30.2308,7.30491Q30.2116,7.208311,30.1739,7.117317Q30.1362,7.026322,30.0815,6.94443Q30.0267,6.862537,29.9571,6.792893Q29.8875,6.723249,29.8056,6.66853Q29.7237,6.613812,29.6327,6.576121Q29.5417,6.53843,29.4451,6.519215Q29.3485,6.5,29.25,6.5L6.75,6.5Q6.6515086,6.5,6.55491,6.519215Q6.458311,6.53843,6.367317,6.576121Q6.276322,6.613812,6.19443,6.66853Q6.112537,6.723249,6.042893,6.792893Q5.973249,6.862537,5.91853,6.94443Q5.863812,7.026322,5.826121,7.117317Q5.78843,7.208311,5.769215,7.30491Q5.75,7.4015086,5.75,7.5ZM7.75,8.5L28.25,8.5L28.25,32L7.75,32L7.75,8.5Z" fill="#333333" fill-opacity="1"/></g><g><path d="M14,24.75L14,15Q14,14.9015086,14.019214999999999,14.80491Q14.03843,14.708311,14.076121,14.617317Q14.113812,14.526322,14.16853,14.44443Q14.223249,14.362537,14.292893,14.292893Q14.362537,14.223249,14.44443,14.16853Q14.526322,14.113812,14.617317,14.076121Q14.708311,14.03843,14.80491,14.019214999999999Q14.9015086,14,15,14Q15.0984914,14,15.19509,14.019214999999999Q15.291689,14.03843,15.382683,14.076121Q15.473678,14.113812,15.55557,14.16853Q15.637463,14.223249,15.707107,14.292893Q15.776751,14.362537,15.83147,14.44443Q15.886188,14.526322,15.923879,14.617317Q15.96157,14.708311,15.980785000000001,14.80491Q16,14.9015086,16,15L16,24.75Q16,24.848489999999998,15.980785000000001,24.94509Q15.96157,25.0417,15.923879,25.1327Q15.886188,25.2237,15.83147,25.3056Q15.776751,25.3875,15.707107,25.4571Q15.637463,25.5268,15.55557,25.5815Q15.473678,25.636200000000002,15.382683,25.6739Q15.291689,25.7116,15.19509,25.730800000000002Q15.0984914,25.75,15,25.75Q14.9015086,25.75,14.80491,25.730800000000002Q14.708311,25.7116,14.617317,25.6739Q14.526322,25.636200000000002,14.44443,25.5815Q14.362537,25.5268,14.292893,25.4571Q14.223249,25.3875,14.16853,25.3056Q14.113812,25.2237,14.076121,25.1327Q14.03843,25.0417,14.019214999999999,24.94509Q14,24.848489999999998,14,24.75ZM16,24.75Q16,24.848489999999998,15.980785000000001,24.94509Q15.96157,25.0417,15.923879,25.1327Q15.886188,25.2237,15.83147,25.3056Q15.776751,25.3875,15.707107,25.4571Q15.637463,25.5268,15.55557,25.5815Q15.473678,25.636200000000002,15.382683,25.6739Q15.291689,25.7116,15.19509,25.730800000000002Q15.0984914,25.75,15,25.75Q14.9015086,25.75,14.80491,25.730800000000002Q14.708311,25.7116,14.617317,25.6739Q14.526322,25.636200000000002,14.44443,25.5815Q14.362537,25.5268,14.292893,25.4571Q14.223249,25.3875,14.16853,25.3056Q14.113812,25.2237,14.076121,25.1327Q14.03843,25.0417,14.019214999999999,24.94509Q14,24.848489999999998,14,24.75Q14,24.651510000000002,14.019214999999999,24.55491Q14.03843,24.45831,14.076121,24.36732Q14.113812,24.27632,14.16853,24.19443Q14.223249,24.11254,14.292893,24.04289Q14.362537,23.97325,14.44443,23.91853Q14.526322,23.86381,14.617317,23.82612Q14.708311,23.788429999999998,14.80491,23.76921Q14.9015086,23.75,15,23.75Q15.0984914,23.75,15.19509,23.76921Q15.291689,23.788429999999998,15.382683,23.82612Q15.473678,23.86381,15.55557,23.91853Q15.637463,23.97325,15.707107,24.04289Q15.776751,24.11254,15.83147,24.19443Q15.886188,24.27632,15.923879,24.36732Q15.96157,24.45831,15.980785000000001,24.55491Q16,24.651510000000002,16,24.75ZM16,15Q16,15.0984914,15.980785000000001,15.19509Q15.96157,15.291689,15.923879,15.382683Q15.886188,15.473678,15.83147,15.55557Q15.776751,15.637463,15.707107,15.707107Q15.637463,15.776751,15.55557,15.83147Q15.473678,15.886188,15.382683,15.923879Q15.291689,15.96157,15.19509,15.980785000000001Q15.0984914,16,15,16Q14.9015086,16,14.80491,15.980785000000001Q14.708311,15.96157,14.617317,15.923879Q14.526322,15.886188,14.44443,15.83147Q14.362537,15.776751,14.292893,15.707107Q14.223249,15.637463,14.16853,15.55557Q14.113812,15.473678,14.076121,15.382683Q14.03843,15.291689,14.019214999999999,15.19509Q14,15.0984914,14,15Q14,14.9015086,14.019214999999999,14.80491Q14.03843,14.708311,14.076121,14.617317Q14.113812,14.526322,14.16853,14.44443Q14.223249,14.362537,14.292893,14.292893Q14.362537,14.223249,14.44443,14.16853Q14.526322,14.113812,14.617317,14.076121Q14.708311,14.03843,14.80491,14.019214999999999Q14.9015086,14,15,14Q15.0984914,14,15.19509,14.019214999999999Q15.291689,14.03843,15.382683,14.076121Q15.473678,14.113812,15.55557,14.16853Q15.637463,14.223249,15.707107,14.292893Q15.776751,14.362537,15.83147,14.44443Q15.886188,14.526322,15.923879,14.617317Q15.96157,14.708311,15.980785000000001,14.80491Q16,14.9015086,16,15Z" fill="#333333" fill-opacity="1"/></g><g><path d="M20,24.75L20,15Q20,14.9015086,20.019215,14.80491Q20.038429999999998,14.708311,20.076121,14.617317Q20.113812,14.526322,20.16853,14.44443Q20.223249,14.362537,20.292893,14.292893Q20.362537,14.223249,20.44443,14.16853Q20.526322,14.113812,20.617317,14.076121Q20.708311,14.03843,20.80491,14.019214999999999Q20.9015086,14,21,14Q21.0984914,14,21.19509,14.019214999999999Q21.291689,14.03843,21.382683,14.076121Q21.473678,14.113812,21.55557,14.16853Q21.637463,14.223249,21.707107,14.292893Q21.776751,14.362537,21.83147,14.44443Q21.886188,14.526322,21.923879,14.617317Q21.961570000000002,14.708311,21.980785,14.80491Q22,14.9015086,22,15L22,24.75Q22,24.848489999999998,21.980785,24.94509Q21.961570000000002,25.0417,21.923879,25.1327Q21.886188,25.2237,21.83147,25.3056Q21.776751,25.3875,21.707107,25.4571Q21.637463,25.5268,21.55557,25.5815Q21.473678,25.636200000000002,21.382683,25.6739Q21.291689,25.7116,21.19509,25.730800000000002Q21.0984914,25.75,21,25.75Q20.9015086,25.75,20.80491,25.730800000000002Q20.708311,25.7116,20.617317,25.6739Q20.526322,25.636200000000002,20.44443,25.5815Q20.362537,25.5268,20.292893,25.4571Q20.223249,25.3875,20.16853,25.3056Q20.113812,25.2237,20.076121,25.1327Q20.038429999999998,25.0417,20.019215,24.94509Q20,24.848489999999998,20,24.75ZM22,24.75Q22,24.848489999999998,21.980785,24.94509Q21.961570000000002,25.0417,21.923879,25.1327Q21.886188,25.2237,21.83147,25.3056Q21.776751,25.3875,21.707107,25.4571Q21.637463,25.5268,21.55557,25.5815Q21.473678,25.636200000000002,21.382683,25.6739Q21.291689,25.7116,21.19509,25.730800000000002Q21.0984914,25.75,21,25.75Q20.9015086,25.75,20.80491,25.730800000000002Q20.708311,25.7116,20.617317,25.6739Q20.526322,25.636200000000002,20.44443,25.5815Q20.362537,25.5268,20.292893,25.4571Q20.223249,25.3875,20.16853,25.3056Q20.113812,25.2237,20.076121,25.1327Q20.038429999999998,25.0417,20.019215,24.94509Q20,24.848489999999998,20,24.75Q20,24.651510000000002,20.019215,24.55491Q20.038429999999998,24.45831,20.076121,24.36732Q20.113812,24.27632,20.16853,24.19443Q20.223249,24.11254,20.292893,24.04289Q20.362537,23.97325,20.44443,23.91853Q20.526322,23.86381,20.617317,23.82612Q20.708311,23.788429999999998,20.80491,23.76921Q20.9015086,23.75,21,23.75Q21.0984914,23.75,21.19509,23.76921Q21.291689,23.788429999999998,21.382683,23.82612Q21.473678,23.86381,21.55557,23.91853Q21.637463,23.97325,21.707107,24.04289Q21.776751,24.11254,21.83147,24.19443Q21.886188,24.27632,21.923879,24.36732Q21.961570000000002,24.45831,21.980785,24.55491Q22,24.651510000000002,22,24.75ZM22,15Q22,15.0984914,21.980785,15.19509Q21.961570000000002,15.291689,21.923879,15.382683Q21.886188,15.473678,21.83147,15.55557Q21.776751,15.637463,21.707107,15.707107Q21.637463,15.776751,21.55557,15.83147Q21.473678,15.886188,21.382683,15.923879Q21.291689,15.96157,21.19509,15.980785000000001Q21.0984914,16,21,16Q20.9015086,16,20.80491,15.980785000000001Q20.708311,15.96157,20.617317,15.923879Q20.526322,15.886188,20.44443,15.83147Q20.362537,15.776751,20.292893,15.707107Q20.223249,15.637463,20.16853,15.55557Q20.113812,15.473678,20.076121,15.382683Q20.038429999999998,15.291689,20.019215,15.19509Q20,15.0984914,20,15Q20,14.9015086,20.019215,14.80491Q20.038429999999998,14.708311,20.076121,14.617317Q20.113812,14.526322,20.16853,14.44443Q20.223249,14.362537,20.292893,14.292893Q20.362537,14.223249,20.44443,14.16853Q20.526322,14.113812,20.617317,14.076121Q20.708311,14.03843,20.80491,14.019214999999999Q20.9015086,14,21,14Q21.0984914,14,21.19509,14.019214999999999Q21.291689,14.03843,21.382683,14.076121Q21.473678,14.113812,21.55557,14.16853Q21.637463,14.223249,21.707107,14.292893Q21.776751,14.362537,21.83147,14.44443Q21.886188,14.526322,21.923879,14.617317Q21.961570000000002,14.708311,21.980785,14.80491Q22,14.9015086,22,15Z" fill="#333333" fill-opacity="1"/></g><g><path d="M33,8.5L3,8.5Q2.9015086,8.5,2.80491,8.480785000000001Q2.708311,8.46157,2.617317,8.423879Q2.526322,8.386188,2.44443,8.33147Q2.362537,8.276751,2.292893,8.207107Q2.223249,8.137463,2.16853,8.05557Q2.1138120000000002,7.973678,2.076121,7.882683Q2.03843,7.791689,2.019215,7.69509Q2,7.5984914,2,7.5Q2,7.4015086,2.019215,7.30491Q2.03843,7.208311,2.076121,7.117317Q2.1138120000000002,7.026322,2.16853,6.94443Q2.223249,6.862537,2.292893,6.792893Q2.362537,6.723249,2.44443,6.66853Q2.526322,6.613812,2.617317,6.576121Q2.708311,6.53843,2.80491,6.519215Q2.9015086,6.5,3,6.5L33,6.5Q33.0985,6.5,33.1951,6.519215Q33.2917,6.53843,33.3827,6.576121Q33.4737,6.613812,33.5556,6.66853Q33.6375,6.723249,33.7071,6.792893Q33.776700000000005,6.862537,33.8315,6.94443Q33.8862,7.026322,33.9239,7.117317Q33.961600000000004,7.208311,33.9808,7.30491Q34,7.4015086,34,7.5Q34,7.5984914,33.9808,7.69509Q33.961600000000004,7.791689,33.9239,7.882683Q33.8862,7.973678,33.8315,8.05557Q33.776700000000005,8.137463,33.7071,8.207107Q33.6375,8.276751,33.5556,8.33147Q33.4737,8.386188,33.3827,8.423879Q33.2917,8.46157,33.1951,8.480785000000001Q33.0985,8.5,33,8.5ZM34,7.5Q34,7.5984914,33.9808,7.69509Q33.961600000000004,7.791689,33.9239,7.882683Q33.8862,7.973678,33.8315,8.05557Q33.776700000000005,8.137463,33.7071,8.207107Q33.6375,8.276751,33.5556,8.33147Q33.4737,8.386188,33.3827,8.423879Q33.2917,8.46157,33.1951,8.480785000000001Q33.0985,8.5,33,8.5Q32.9015,8.5,32.8049,8.480785000000001Q32.7083,8.46157,32.6173,8.423879Q32.5263,8.386188,32.4444,8.33147Q32.3625,8.276751,32.2929,8.207107Q32.2232,8.137463,32.1685,8.05557Q32.1138,7.973678,32.0761,7.882683Q32.038399999999996,7.791689,32.0192,7.69509Q32,7.5984914,32,7.5Q32,7.4015086,32.0192,7.30491Q32.038399999999996,7.208311,32.0761,7.117317Q32.1138,7.026322,32.1685,6.94443Q32.2232,6.862537,32.2929,6.792893Q32.3625,6.723249,32.4444,6.66853Q32.5263,6.613812,32.6173,6.576121Q32.7083,6.53843,32.8049,6.519215Q32.9015,6.5,33,6.5Q33.0985,6.5,33.1951,6.519215Q33.2917,6.53843,33.3827,6.576121Q33.4737,6.613812,33.5556,6.66853Q33.6375,6.723249,33.7071,6.792893Q33.776700000000005,6.862537,33.8315,6.94443Q33.8862,7.026322,33.9239,7.117317Q33.961600000000004,7.208311,33.9808,7.30491Q34,7.4015086,34,7.5ZM4,7.5Q4,7.5984914,3.980785,7.69509Q3.96157,7.791689,3.923879,7.882683Q3.8861879999999998,7.973678,3.83147,8.05557Q3.776751,8.137463,3.707107,8.207107Q3.637463,8.276751,3.55557,8.33147Q3.473678,8.386188,3.382683,8.423879Q3.291689,8.46157,3.19509,8.480785000000001Q3.0984914,8.5,3,8.5Q2.9015086,8.5,2.80491,8.480785000000001Q2.708311,8.46157,2.617317,8.423879Q2.526322,8.386188,2.44443,8.33147Q2.362537,8.276751,2.292893,8.207107Q2.223249,8.137463,2.16853,8.05557Q2.1138120000000002,7.973678,2.076121,7.882683Q2.03843,7.791689,2.019215,7.69509Q2,7.5984914,2,7.5Q2,7.4015086,2.019215,7.30491Q2.03843,7.208311,2.076121,7.117317Q2.1138120000000002,7.026322,2.16853,6.94443Q2.223249,6.862537,2.292893,6.792893Q2.362537,6.723249,2.44443,6.66853Q2.526322,6.613812,2.617317,6.576121Q2.708311,6.53843,2.80491,6.519215Q2.9015086,6.5,3,6.5Q3.0984914,6.5,3.19509,6.519215Q3.291689,6.53843,3.382683,6.576121Q3.473678,6.613812,3.55557,6.66853Q3.637463,6.723249,3.707107,6.792893Q3.776751,6.862537,3.83147,6.94443Q3.8861879999999998,7.026322,3.923879,7.117317Q3.96157,7.208311,3.980785,7.30491Q4,7.4015086,4,7.5Z" fill="#333333" fill-opacity="1"/></g><g><path d="M24,8.5L12,8.5Q11.9015086,8.5,11.80491,8.48078Q11.708311,8.46157,11.617317,8.42388Q11.526322,8.38619,11.44443,8.33147Q11.362537,8.27675,11.292893,8.20711Q11.223249,8.13746,11.16853,8.05557Q11.113812,7.97368,11.076121,7.88268Q11.03843,7.79169,11.019214999999999,7.69509Q11,7.59849,11,7.5Q11,7.24389,11.123106,7.01932L13.58986,2.519316Q13.65449,2.401398,13.74799,2.304745Q13.84148,2.208091,13.95718,2.139569Q14.072890000000001,2.071046,14.202580000000001,2.035523Q14.33228,2,14.466750000000001,2L21.582819999999998,2Q21.71838,2,21.849040000000002,2.036087Q21.97971,2.072175,22.096,2.1417450000000002Q22.212400000000002,2.211315,22.305999999999997,2.309347Q22.3996,2.407378,22.4638,2.526796L24.881,7.0268Q24.927599999999998,7.11356,24.9563,7.20775Q24.9851,7.30194,24.994999999999997,7.39994Q25.0048,7.49794,24.9954,7.59598Q24.9859,7.69401,24.9575,7.78832Q24.9291,7.88263,24.8829,7.96959Q24.8366,8.05654,24.7743,8.13281Q24.712,8.20907,24.636,8.271709999999999Q24.560000000000002,8.33435,24.4732,8.38095Q24.2516,8.5,24,8.5ZM24,6.5L24,7.5L23.119,7.9732L20.70187,3.473204L21.582819999999998,3L21.582819999999998,4L14.466750000000001,4L14.466750000000001,3L15.34364,3.480684L12.876894,7.98068L12,7.5L12,6.5L24,6.5Z" fill="#333333" fill-opacity="1"/></g></g></svg>