<svg xmlns="http://www.w3.org/2000/svg" xmlns:xlink="http://www.w3.org/1999/xlink" fill="none" version="1.1" width="76" height="29" viewBox="0 0 76 29"><g style="mix-blend-mode:passthrough"><path d="M19.0781,2.5L18.8672,4.53906L6.71875,4.53906L6.02344,11.3516Q5.57031,15.7109,4.84375,19.0781Q4.125,22.4453,2.92969,25.2422L0.984375,24.4219Q2.0625,21.8281,2.75781,18.6719Q3.45312,15.5078,3.89062,11.3359L4.79688,2.5L19.0781,2.5ZM6.26562,25.0078L4.70312,23.5391Q6.71875,21.2969,7.91406,18.4766Q9.11719,15.6562,9.76562,12L7.03125,12L7.25,9.90625L10.0781,9.90625Q10.125,9.5,10.1797,9.07031L10.5391,5.92188L12.6016,5.92188L12.2422,9.09375Q12.1953,9.5,12.1406,9.90625L15.5547,9.90625Q16.4375,9.90625,16.9062,10.4531Q17.375,10.9922,17.2578,11.8672L16.0781,21.3906Q15.9141,22.9219,15.1406,23.9609Q14.375,25,12.9609,25Q11.6172,25,10.8203,24.1172Q10.0312,23.2344,9.84375,21.7656L11.6172,21.4531Q11.7344,22.1953,12.0312,22.6172Q12.3359,23.0312,12.7891,23.0312Q13.2734,23.0312,13.5703,22.6172Q13.875,22.1953,13.9922,21.1875L15.1406,12L11.8281,12Q11.1328,15.8906,9.79688,19.1953Q8.46875,22.4922,6.26562,25.0078ZM21.4922,25.2266L20.5625,23.1641Q22.3359,22.6641,23.6172,21.875Q24.9062,21.0781,25.8125,20Q25.0234,19.0859,24.3594,18.0547Q23.7031,17.0234,23.125,15.8906L24.7812,14.6953Q25.6953,16.6641,26.9453,18.1719Q27.3516,17.2891,27.6172,16.2422Q27.8828,15.1953,28.0234,14L22.625,14L23.5859,4.5L28.9141,4.5L29.2031,1.52344L31.3594,1.52344L31.0703,4.5L34.6016,4.5Q35.7266,4.5,36.1719,5.07031Q36.6172,5.63281,36.4922,6.55469L35.7266,14L30.1562,14Q29.7734,17.3594,28.4297,19.7344Q29.9453,21.0547,31.7656,21.8594Q33.5938,22.6641,35.7031,23.0234L34.8906,24.9922Q32.5391,24.6016,30.6406,23.6875Q28.7422,22.7812,27.2578,21.4609Q25.1719,23.9297,21.4922,25.2266ZM25,11.9609L28.2188,11.9609L28.7188,6.53906L25.5547,6.53906L25,11.9609ZM30.3516,11.9609L33.7578,11.9609L34.3359,6.53906L30.8594,6.53906L30.3516,11.9609ZM46.1328,5.89062L44.2656,7.03906Q43.6875,5.86719,43.0234,4.79688Q42.3672,3.71875,41.6484,2.83594L43.5234,1.71094Q44.2188,2.67188,44.8906,3.71875Q45.5625,4.75781,46.1328,5.89062ZM40.8047,23.3438L39.8516,21.4453Q40.6641,20.9453,41.4531,20.4141L42.4375,10.9531L40.3047,10.9531L40.5234,8.78906L42.6797,8.78906Q43.7109,8.78906,44.1875,9.39844Q44.6719,10,44.5547,10.9141L43.7344,18.6797Q44.6953,17.8516,45.5859,16.9844L46.1328,17.8047L46.9531,10.4453L53.0234,10.4453L53.625,4.57031L46.9766,4.57031L47.2188,2.45312L53.8438,2.45312Q54.7734,2.45312,55.2734,2.96875Q55.7812,3.48438,55.6875,4.46875L54.8984,12.5625L48.8516,12.5625L48.1016,19.4062Q47.8906,21.3906,48.4062,22.125Q48.9219,22.8594,50.0703,22.8594Q51.2969,22.8594,52.1953,22.0547Q53.0938,21.2422,53.3125,19.2578L55.4219,19.5234Q55.1562,22.1016,53.75,23.5469Q52.3516,25,49.8594,25Q47.7891,25,46.7109,23.7422Q45.6328,22.4922,45.9453,19.5469L45.9453,19.4766Q43.4922,21.6641,40.8047,23.3438ZM74.9062,21.1641L74.1328,23.1016Q72.1719,22.1797,70.5859,20.9219Q69,19.6641,67.9453,17.8672L67.6562,21.3359Q67.4844,23.2891,66.5938,24.1406Q65.7109,25,64.3672,25Q63.2656,25,62.4922,24.2188Q61.7266,23.4453,61.4844,22.1953L63.4766,21.4141Q63.7188,22.125,63.9609,22.4219Q64.2031,22.7188,64.5156,22.7188Q64.875,22.7188,65.1484,22.3906Q65.4219,22.0547,65.4922,21.25L66.2891,11.9219L59.1328,11.9219L59.3516,10L70.6562,10L70.875,8.32812L61.7734,8.32812L61.9688,6.5L71.1094,6.5L71.3516,4.52344L61.5859,4.52344L61.8203,2.45312L71.4922,2.45312Q72.6016,2.45312,73.1016,3.03906Q73.6094,3.61719,73.4844,4.53125L72.8125,10L75.2188,10L75,11.9219L68.4453,11.9219L68.2578,14.2422Q68.5938,15.3281,69.1172,16.2578Q70.2734,15.5938,71.2422,14.7578Q72.2188,13.9141,73.0312,12.8438L74.4688,14.1016Q72.7656,16.2812,70.1484,17.7266Q71.0625,18.8203,72.2578,19.6484Q73.4609,20.4766,74.9062,21.1641ZM64.9219,15.5469L63.6953,17.0625Q62.7109,16.1641,61.7031,15.4531Q60.6953,14.7344,59.7344,14.1953L60.8906,12.7266Q62.9062,13.8125,64.9219,15.5469ZM57.7422,20.6797Q59.4453,20.0625,60.9062,19.3281Q62.375,18.5938,63.6953,17.5781L64.7266,19.1172Q63.3359,20.1562,61.7656,21Q60.1953,21.8438,58.4609,22.4844L57.7422,20.6797Z" fill="#3D3D3D" fill-opacity="1"/></g></svg>