<svg xmlns="http://www.w3.org/2000/svg" xmlns:xlink="http://www.w3.org/1999/xlink" fill="none" version="1.1" width="36" height="36" viewBox="0 0 36 36"><defs><clipPath id="master_svg0_11_0037"><rect x="0" y="0" width="36" height="36" rx="0"/></clipPath></defs><g clip-path="url(#master_svg0_11_0037)"><g><rect x="0" y="0" width="36" height="36" rx="0" fill="#FFFFFF" fill-opacity="0.009999999776482582"/></g><g><path d="M13.5429,29.9571L2.292893,18.7071Q2.223249,18.6375,2.16853,18.5556Q2.1138120000000002,18.4737,2.076121,18.3827Q2.03843,18.2917,2.019215,18.1951Q2,18.0985,2,18Q2,17.9015,2.019215,17.8049Q2.03843,17.7083,2.076121,17.6173Q2.1138120000000002,17.5263,2.16853,17.4444Q2.223249,17.3625,2.292893,17.2929L6.04289,13.54289Q6.11254,13.47325,6.1944300000000005,13.41853Q6.27632,13.36381,6.367319999999999,13.32612Q6.45831,13.28843,6.55491,13.269210000000001Q6.65151,13.25,6.75,13.25Q6.84849,13.25,6.94509,13.269210000000001Q7.04169,13.28843,7.13268,13.32612Q7.22368,13.36381,7.30557,13.41853Q7.38746,13.47325,7.45711,13.54289L14.9571,21.0429L14.25,21.75L13.5429,21.0429L28.5429,6.042893Q28.6125,5.973249,28.6944,5.91853Q28.7763,5.863812,28.8673,5.826121Q28.9583,5.78843,29.0549,5.769215Q29.1515,5.75,29.25,5.75Q29.3485,5.75,29.4451,5.769215Q29.5417,5.78843,29.6327,5.826121Q29.7237,5.863812,29.8056,5.91853Q29.8875,5.973249,29.9571,6.042893L33.7071,9.79289Q33.7768,9.86254,33.8315,9.94443Q33.8862,10.02632,33.9239,10.11732Q33.961600000000004,10.20831,33.9808,10.30491Q34,10.40151,34,10.5Q34,10.59849,33.9808,10.69509Q33.961600000000004,10.79169,33.9239,10.88268Q33.8862,10.97368,33.8315,11.05557Q33.7768,11.13746,33.7071,11.20711L14.9571,29.9571Q14.8875,30.0268,14.8056,30.0815Q14.7237,30.1362,14.6327,30.1739Q14.5417,30.2116,14.4451,30.2308Q14.3485,30.25,14.25,30.25Q14.1515,30.25,14.0549,30.2308Q13.9583,30.2116,13.8673,30.1739Q13.7763,30.1362,13.6944,30.0815Q13.6125,30.0268,13.5429,29.9571ZM14.9571,28.5429L14.25,29.25L13.5429,28.5429L32.2929,9.79289L33,10.5L32.2929,11.20711L28.5429,7.457107L29.25,6.75L29.9571,7.457107L14.9571,22.4571Q14.8875,22.526699999999998,14.8056,22.5815Q14.7237,22.636200000000002,14.6327,22.6739Q14.5417,22.7116,14.4451,22.730800000000002Q14.3485,22.75,14.25,22.75Q14.1515,22.75,14.0549,22.730800000000002Q13.9583,22.7116,13.8673,22.6739Q13.7763,22.636200000000002,13.6944,22.5815Q13.6125,22.526699999999998,13.5429,22.4571L6.04289,14.95711L6.75,14.25L7.45711,14.95711L3.707107,18.7071L3,18L3.707107,17.2929L14.9571,28.5429Z" fill="#333333" fill-opacity="1"/></g></g></svg>