<svg xmlns="http://www.w3.org/2000/svg" xmlns:xlink="http://www.w3.org/1999/xlink" fill="none" version="1.1" width="36" height="36" viewBox="0 0 36 36"><defs><clipPath id="master_svg0_11_0020"><rect x="0" y="0" width="36" height="36" rx="0"/></clipPath></defs><g clip-path="url(#master_svg0_11_0020)"><g><path d="M7,31.5Q7,31.7071,7.14644,31.8536Q7.29288,32,7.5,32L28.5,32Q28.7071,32,28.8536,31.8536Q29,31.7071,29,31.5L29,10.5L30,10.5L29.2567,11.16896L22.5067,3.668965L23.25,3L23.25,4L7.5,4Q7.29289,4,7.14645,4.14645Q7,4.29289,7,4.5L7,31.5ZM5,31.5L5,4.5Q5,3.464466,5.732233,2.732233Q6.464466,2,7.5,2L23.25,2Q23.3551,2,23.458,2.021864Q23.5608,2.0437279999999998,23.6568,2.0865Q23.7529,2.1292720000000003,23.8379,2.191081Q23.923,2.252891,23.9933,2.331035L30.7433,9.83104Q30.8672,9.96875,30.9336,10.14174Q31,10.314720000000001,31,10.5L31,31.5Q31,32.5356,30.2678,33.2678Q29.5356,34,28.5,34L7.5,34Q6.464465,34,5.732236,33.2678Q5,32.5355,5,31.5Z" fill="#333333" fill-opacity="1"/></g><g><path d="M12.75,25.25L15.75,25.25L15.75,26.25L15.04289,25.54289L22.54289,18.04289L23.25,18.75L22.54289,19.45711L19.54289,16.457107L20.25,15.75L20.95711,16.457107L13.457107,23.95711L12.75,23.25L13.75,23.25L13.75,26.25L12.75,26.25L12.75,25.25ZM12.75,27.25Q12.6515086,27.25,12.55491,27.230800000000002Q12.458311,27.2116,12.367317,27.1739Q12.276322,27.136200000000002,12.19443,27.0815Q12.112537,27.0268,12.042893,26.9571Q11.973249,26.8875,11.91853,26.8056Q11.863812,26.7237,11.826121,26.6327Q11.78843,26.5417,11.769214999999999,26.4451Q11.75,26.3485,11.75,26.25L11.75,23.25Q11.75,23.051090000000002,11.826121,22.86732Q11.902241,22.68355,12.042893,22.54289L19.54289,15.042893Q19.61254,14.973249,19.69443,14.91853Q19.77632,14.863812,19.86732,14.826121Q19.95831,14.78843,20.05491,14.769214999999999Q20.151510000000002,14.75,20.25,14.75Q20.348489999999998,14.75,20.44509,14.769214999999999Q20.54169,14.78843,20.63268,14.826121Q20.72368,14.863812,20.80557,14.91853Q20.88746,14.973249,20.95711,15.042893L23.9571,18.04289Q24.026699999999998,18.11254,24.0815,18.19443Q24.136200000000002,18.27632,24.1739,18.36732Q24.2116,18.45831,24.230800000000002,18.55491Q24.25,18.651510000000002,24.25,18.75Q24.25,18.848489999999998,24.230800000000002,18.94509Q24.2116,19.04169,24.1739,19.13268Q24.136200000000002,19.22368,24.0815,19.30557Q24.026699999999998,19.38746,23.9571,19.45711L16.45711,26.9571Q16.31645,27.0978,16.13268,27.1739Q15.94891,27.25,15.75,27.25L12.75,27.25Z" fill="#333333" fill-opacity="1"/></g><g><path d="M30,11.5L22.5,11.5Q22.4015086,11.5,22.30491,11.48078Q22.208311,11.46157,22.117317,11.42388Q22.026322,11.38619,21.94443,11.33147Q21.862537,11.27675,21.792893,11.20711Q21.723249,11.13746,21.66853,11.05557Q21.613812,10.97368,21.576121,10.88268Q21.538429999999998,10.79169,21.519215,10.69509Q21.5,10.59849,21.5,10.5L21.5,3Q21.5,2.9015086,21.519215,2.80491Q21.538429999999998,2.708311,21.576121,2.617317Q21.613812,2.526322,21.66853,2.44443Q21.723249,2.362537,21.792893,2.292893Q21.862537,2.223249,21.94443,2.16853Q22.026322,2.1138120000000002,22.117317,2.076121Q22.208311,2.03843,22.30491,2.019215Q22.4015086,2,22.5,2Q22.5984914,2,22.69509,2.019215Q22.791689,2.03843,22.882683,2.076121Q22.973678,2.1138120000000002,23.05557,2.16853Q23.137463,2.223249,23.207107,2.292893Q23.276751,2.362537,23.33147,2.44443Q23.386188,2.526322,23.423879,2.617317Q23.461570000000002,2.708311,23.480785,2.80491Q23.5,2.9015086,23.5,3L23.5,10.5L22.5,10.5L22.5,9.5L30,9.5Q30.098489999999998,9.5,30.19509,9.519210000000001Q30.29169,9.53843,30.38268,9.57612Q30.47368,9.61381,30.55557,9.66853Q30.63746,9.72325,30.70711,9.79289Q30.77675,9.86254,30.83147,9.94443Q30.88619,10.02632,30.92388,10.11732Q30.961570000000002,10.20831,30.98078,10.30491Q31,10.40151,31,10.5Q31,10.59849,30.98078,10.69509Q30.961570000000002,10.79169,30.92388,10.88268Q30.88619,10.97368,30.83147,11.05557Q30.77675,11.13746,30.70711,11.20711Q30.63746,11.27675,30.55557,11.33147Q30.47368,11.38619,30.38268,11.42388Q30.29169,11.46157,30.19509,11.48078Q30.098489999999998,11.5,30,11.5ZM31,10.5Q31,10.59849,30.98078,10.69509Q30.961570000000002,10.79169,30.92388,10.88268Q30.88619,10.97368,30.83147,11.05557Q30.77675,11.13746,30.70711,11.20711Q30.63746,11.27675,30.55557,11.33147Q30.47368,11.38619,30.38268,11.42388Q30.29169,11.46157,30.19509,11.48078Q30.098489999999998,11.5,30,11.5Q29.901510000000002,11.5,29.80491,11.48078Q29.70831,11.46157,29.61732,11.42388Q29.52632,11.38619,29.44443,11.33147Q29.36254,11.27675,29.29289,11.20711Q29.22325,11.13746,29.16853,11.05557Q29.11381,10.97368,29.07612,10.88268Q29.038429999999998,10.79169,29.01921,10.69509Q29,10.59849,29,10.5Q29,10.40151,29.01921,10.30491Q29.038429999999998,10.20831,29.07612,10.11732Q29.11381,10.02632,29.16853,9.94443Q29.22325,9.86254,29.29289,9.79289Q29.36254,9.72325,29.44443,9.66853Q29.52632,9.61381,29.61732,9.57612Q29.70831,9.53843,29.80491,9.519210000000001Q29.901510000000002,9.5,30,9.5Q30.098489999999998,9.5,30.19509,9.519210000000001Q30.29169,9.53843,30.38268,9.57612Q30.47368,9.61381,30.55557,9.66853Q30.63746,9.72325,30.70711,9.79289Q30.77675,9.86254,30.83147,9.94443Q30.88619,10.02632,30.92388,10.11732Q30.961570000000002,10.20831,30.98078,10.30491Q31,10.40151,31,10.5ZM23.5,3Q23.5,3.0984914,23.480785,3.19509Q23.461570000000002,3.291689,23.423879,3.382683Q23.386188,3.473678,23.33147,3.55557Q23.276751,3.637463,23.207107,3.707107Q23.137463,3.776751,23.05557,3.83147Q22.973678,3.8861879999999998,22.882683,3.923879Q22.791689,3.96157,22.69509,3.980785Q22.5984914,4,22.5,4Q22.4015086,4,22.30491,3.980785Q22.208311,3.96157,22.117317,3.923879Q22.026322,3.8861879999999998,21.94443,3.83147Q21.862537,3.776751,21.792893,3.707107Q21.723249,3.637463,21.66853,3.55557Q21.613812,3.473678,21.576121,3.382683Q21.538429999999998,3.291689,21.519215,3.19509Q21.5,3.0984914,21.5,3Q21.5,2.9015086,21.519215,2.80491Q21.538429999999998,2.708311,21.576121,2.617317Q21.613812,2.526322,21.66853,2.44443Q21.723249,2.362537,21.792893,2.292893Q21.862537,2.223249,21.94443,2.16853Q22.026322,2.1138120000000002,22.117317,2.076121Q22.208311,2.03843,22.30491,2.019215Q22.4015086,2,22.5,2Q22.5984914,2,22.69509,2.019215Q22.791689,2.03843,22.882683,2.076121Q22.973678,2.1138120000000002,23.05557,2.16853Q23.137463,2.223249,23.207107,2.292893Q23.276751,2.362537,23.33147,2.44443Q23.386188,2.526322,23.423879,2.617317Q23.461570000000002,2.708311,23.480785,2.80491Q23.5,2.9015086,23.5,3Z" fill="#333333" fill-opacity="1"/></g></g></svg>